<svg width="353" height="102" viewBox="0 0 353 102" fill="none" xmlns="http://www.w3.org/2000/svg">
<path d="M85.08 6.19999C88.52 8.11999 91.32 10.72 93.48 14C95.72 17.28 96.84 20.96 96.84 25.04C96.84 29.12 94.28 33.8 89.16 39.08C84.04 44.36 77.8 48.88 70.44 52.64C63.16 56.32 56.8 58.16 51.36 58.16C46 58.16 42.12 55.92 39.72 51.44C25.96 69.92 18.2 81.12 16.44 85.04C16.52 85.44 16.56 86 16.56 86.72C16.56 87.52 16.12 87.92 15.24 87.92C14.36 87.92 13.2 87.16 11.76 85.64C10.4 84.2 9.72 82.12 9.72 79.4C9.72 78.6 9.76 77.96 9.84 77.48C10.56 72.2 17.88 61.8 31.8 46.28C45.8 30.76 55.88 21.32 62.04 17.96C63.32 17.32 64.28 17 64.92 17C65.56 17 66.2 17.2 66.84 17.6C67.56 18 67.92 18.48 67.92 19.04C67.92 19.6 67.76 20.04 67.44 20.36C61.44 26.6 57.84 30.4 56.64 31.76L42.36 48.32C42.2 48.56 42.12 48.8 42.12 49.04C42.12 49.6 42.48 49.88 43.2 49.88C46.4 49.88 50.72 48.96 56.16 47.12C61.68 45.28 67.12 43 72.48 40.28C77.84 37.48 82.48 34.24 86.4 30.56C90.32 26.8 92.28 23.32 92.28 20.12C92.28 17.48 89.76 15.52 84.72 14.24C79.68 12.96 74.24 12.32 68.4 12.32C62.64 12.32 56.4 13.16 49.68 14.84C42.96 16.44 37.08 18.44 32.04 20.84C27.08 23.24 22.6 25.76 18.6 28.4C14.6 30.96 11.56 33.24 9.48 35.24C7.48 37.16 6.48 38.44 6.48 39.08C6.48 39.64 6.76 39.92 7.32 39.92C7.88 39.92 9.4 39.52 11.88 38.72C19.88 36.08 27.72 32.52 35.4 28.04C35.96 27.72 36.32 27.56 36.48 27.56C36.72 27.56 36.84 27.68 36.84 27.92C36.84 28.08 36.32 28.84 35.28 30.2C34.32 31.48 32.96 33.08 31.2 35C29.44 36.84 27.52 38.64 25.44 40.4C23.36 42.16 21 43.68 18.36 44.96C15.8 46.16 13.28 46.76 10.8 46.76C8.4 46.76 6 45.8 3.6 43.88C1.28 41.88 0.12 39.2 0.12 35.84C0.12 32.4 1.8 28.68 5.16 24.68C8.52 20.68 12.92 16.88 18.36 13.28C23.88 9.68 30.72 6.64 38.88 4.16C47.04 1.68 55 0.439997 62.76 0.439997C70.52 0.439997 77.96 2.36 85.08 6.19999ZM120.495 64.76C120.575 64.44 120.615 64.2 120.615 64.04C120.615 63.88 120.535 63.8 120.375 63.8C120.295 63.8 120.055 64 119.655 64.4C119.335 64.8 118.895 65.36 118.335 66.08C117.775 66.8 116.575 68.16 114.735 70.16C112.975 72.16 111.135 74.04 109.215 75.8C104.015 80.76 98.815 84.56 93.615 87.2C92.335 87.84 90.935 88.16 89.415 88.16C83.575 88.16 80.655 83.76 80.655 74.96C80.655 67.12 84.375 57.68 91.815 46.64C95.335 41.52 99.535 36.52 104.415 31.64C109.375 26.68 114.615 22.28 120.135 18.44C125.655 14.6 131.655 11.52 138.135 9.2C144.615 6.8 150.935 5.6 157.095 5.6C158.135 5.6 159.535 5.96 161.295 6.68C164.255 7.96 165.735 9.32 165.735 10.76C165.735 11.56 165.215 12 164.175 12.08C163.775 12.08 163.575 12.24 163.575 12.56C163.575 12.88 164.135 13.52 165.255 14.48C166.455 15.36 167.055 16.24 167.055 17.12C167.055 17.92 166.775 18.64 166.215 19.28C162.215 23.68 159.015 27.36 156.615 30.32C154.215 33.2 152.375 35.36 151.095 36.8C149.895 38.24 148.495 39.92 146.895 41.84C145.375 43.68 143.655 46.04 141.735 48.92C139.815 51.72 138.055 54.52 136.455 57.32C132.775 64.12 130.935 70.36 130.935 76.04C130.935 81.64 131.455 86.96 132.495 92C133.535 97.12 134.615 100.24 135.735 101.36C135.735 101.6 135.455 101.72 134.895 101.72C131.215 101.72 128.055 100.28 125.415 97.4C120.615 92.04 118.215 85 118.215 76.28C118.215 73.16 118.975 69.32 120.495 64.76ZM136.215 37.76L159.255 14.6C159.815 14.04 160.095 13.64 160.095 13.4C160.095 13.16 159.895 13.04 159.495 13.04C153.335 14 146.815 16.52 139.935 20.6C133.055 24.68 126.815 29.4 121.215 34.76C115.615 40.12 110.455 45.6 105.735 51.2C101.015 56.8 97.335 61.84 94.695 66.32C92.135 70.8 90.855 74 90.855 75.92C90.855 76.24 91.055 76.4 91.455 76.4C91.935 76.4 92.815 76.12 94.095 75.56C95.375 74.92 99.775 71.4 107.295 65C114.895 58.52 124.535 49.44 136.215 37.76ZM264.747 5.11999L266.427 5.6C266.987 5.6 267.667 5.2 268.467 4.4C269.267 3.52 269.947 3.08 270.507 3.08C271.147 3.08 272.027 3.44 273.147 4.16C274.267 4.8 274.827 5.4 274.827 5.96C274.827 7.24 271.907 11.44 266.067 18.56C260.227 25.6 253.827 33.16 246.867 41.24C239.907 49.32 233.507 57.48 227.667 65.72C221.827 73.88 218.907 79.56 218.907 82.76C218.907 88.2 219.307 92.36 220.107 95.24L220.467 96.44C220.467 97 219.787 97.28 218.427 97.28C217.067 97.28 215.987 97.16 215.187 96.92C214.467 96.76 213.587 96.36 212.547 95.72C210.627 94.44 209.267 91.04 208.467 85.52C208.467 82.88 208.707 80.44 209.187 78.2C209.667 75.88 210.787 73.12 212.547 69.92C214.387 66.72 216.147 63.84 217.827 61.28C219.587 58.72 222.627 54.84 226.947 49.64C232.627 42.84 238.987 35.52 246.027 27.68C253.067 19.76 256.907 15.44 257.547 14.72C258.267 13.92 258.627 13.44 258.627 13.28C258.627 13.12 256.347 15.08 251.787 19.16C247.307 23.16 239.507 30.36 228.387 40.76C217.347 51.16 210.507 57.92 207.867 61.04C197.387 73.04 190.947 80.84 188.547 84.44C188.147 85.48 187.427 86 186.387 86C185.427 86 184.547 85.32 183.747 83.96C182.387 81.64 181.707 78.72 181.707 75.2C183.307 69.36 186.427 62 191.067 53.12C195.707 44.16 200.867 35.36 206.547 26.72L212.187 19.4C212.747 18.52 213.027 17.96 213.027 17.72L212.907 17.6C212.827 17.6 209.747 20.88 203.667 27.44C197.587 34 193.987 37.92 192.867 39.2L167.187 67.28C157.027 78.4 149.707 85.12 145.227 87.44C137.467 90 132.787 91.44 131.187 91.76C130.307 91.76 129.867 91.6 129.867 91.28C129.867 90.96 130.267 90.44 131.067 89.72C142.747 77.8 150.067 70.4 153.027 67.52C153.667 67.12 158.907 62.12 168.747 52.52C178.587 42.84 189.107 32.84 200.307 22.52C211.587 12.2 219.587 5.76 224.307 3.2C227.427 2.24 229.747 1.75999 231.267 1.75999C232.867 1.75999 233.667 2.2 233.667 3.08C233.667 3.64 233.307 4.28 232.587 5C220.507 22.28 213.427 33.2 211.347 37.76L204.027 51.56C203.787 52.12 203.667 52.52 203.667 52.76C203.667 53.24 203.747 53.4 203.907 53.24C210.227 48.12 218.507 40.92 228.747 31.64C239.067 22.36 246.947 15.64 252.387 11.48C257.827 7.24 261.947 5.11999 264.747 5.11999ZM252.026 21.32C252.026 20.12 252.826 19.08 254.426 18.2L268.466 12.68C268.786 12.52 269.226 12.44 269.786 12.44C270.426 12.44 270.986 12.72 271.466 13.28C271.946 13.84 272.466 14.12 273.026 14.12C273.586 14.12 274.746 13.92 276.506 13.52C278.346 13.04 280.786 12.48 283.826 11.84C286.866 11.12 290.266 10.44 294.026 9.8C302.826 8.28 311.986 7.52 321.506 7.52C332.786 7.52 340.866 8.36 345.746 10.04C347.666 10.76 349.266 11.76 350.546 13.04C351.906 14.24 352.586 15.72 352.586 17.48C352.586 18.52 351.866 19.04 350.426 19.04C330.426 19.6 314.066 20.88 301.346 22.88C300.066 23.04 299.426 23.48 299.426 24.2C299.426 24.44 299.426 24.68 299.426 24.92C299.506 25.08 299.226 25.52 298.586 26.24L285.026 40.76C284.466 41.32 284.186 41.76 284.186 42.08C284.186 42.32 284.266 42.44 284.426 42.44C284.666 42.44 285.186 42.36 285.986 42.2C291.186 41.88 295.986 41.72 300.386 41.72C304.786 41.72 307.306 41.96 307.946 42.44C311.466 45.08 313.506 46.8 314.066 47.6C314.706 48.4 315.026 49.04 315.026 49.52C315.026 50.56 314.146 51.2 312.386 51.44C291.266 53.52 279.866 54.56 278.186 54.56C276.506 54.48 275.426 54.44 274.946 54.44C273.666 54.44 272.226 55.44 270.626 57.44L255.986 76.88C255.586 77.52 255.386 78 255.386 78.32C255.386 78.56 255.546 78.68 255.866 78.68C256.186 78.68 256.666 78.52 257.306 78.2C264.826 77 271.826 76.4 278.306 76.4C284.866 76.4 289.746 76.6 292.946 77C297.346 77 302.066 80.24 307.106 86.72C307.506 87.28 307.706 87.8 307.706 88.28C307.706 88.76 307.106 89 305.906 89C285.986 89 270.826 89.4 260.426 90.2C260.026 90.28 259.506 90.32 258.866 90.32C255.426 90.32 253.066 89.52 251.786 87.92C251.546 87.44 251.146 87.2 250.586 87.2C250.026 87.2 249.546 87.48 249.146 88.04C248.666 88.6 248.306 88.88 248.066 88.88C247.826 88.88 247.346 88.64 246.626 88.16C245.906 87.68 245.186 86.84 244.466 85.64C243.666 84.52 243.266 83.32 243.266 82.04C243.266 80.68 243.546 79.44 244.106 78.32C244.586 77.2 245.266 75.76 246.146 74C246.946 72.24 248.786 69.24 251.666 65C254.626 60.68 257.706 57 260.906 53.96C261.306 53.56 261.506 53.2 261.506 52.88C261.506 52.48 261.066 52.28 260.186 52.28C259.386 52.28 258.546 52 257.666 51.44C256.866 50.8 256.466 49.96 256.466 48.92C256.466 47.8 257.866 46.88 260.666 46.16L267.146 44.48C267.226 44.48 267.266 44.48 267.266 44.48C268.546 44.48 269.826 43.64 271.106 41.96C280.386 32.92 286.066 27.88 288.146 26.84C288.866 26.36 289.226 26 289.226 25.76C289.226 25.44 288.986 25.28 288.506 25.28C288.026 25.28 287.626 25.32 287.306 25.4C279.866 26.6 273.946 27.2 269.546 27.2C265.146 27.2 261.946 27 259.946 26.6C257.946 26.2 256.466 25.72 255.506 25.16C253.426 23.8 252.306 22.72 252.146 21.92L252.026 21.32Z" fill="#151618"/>
</svg>
