<svg width="310" height="102" viewBox="0 0 310 102" fill="none" xmlns="http://www.w3.org/2000/svg">
<path d="M85.08 6.19999C88.52 8.11999 91.32 10.72 93.48 14C95.72 17.28 96.84 20.96 96.84 25.04C96.84 29.12 94.28 33.8 89.16 39.08C84.04 44.36 77.8 48.88 70.44 52.64C63.16 56.32 56.8 58.16 51.36 58.16C46 58.16 42.12 55.92 39.72 51.44C25.96 69.92 18.2 81.12 16.44 85.04C16.52 85.44 16.56 86 16.56 86.72C16.56 87.52 16.12 87.92 15.24 87.92C14.36 87.92 13.2 87.16 11.76 85.64C10.4 84.2 9.72 82.12 9.72 79.4C9.72 78.6 9.76 77.96 9.84 77.48C10.56 72.2 17.88 61.8 31.8 46.28C45.8 30.76 55.88 21.32 62.04 17.96C63.32 17.32 64.28 17 64.92 17C65.56 17 66.2 17.2 66.84 17.6C67.56 18 67.92 18.48 67.92 19.04C67.92 19.6 67.76 20.04 67.44 20.36C61.44 26.6 57.84 30.4 56.64 31.76L42.36 48.32C42.2 48.56 42.12 48.8 42.12 49.04C42.12 49.6 42.48 49.88 43.2 49.88C46.4 49.88 50.72 48.96 56.16 47.12C61.68 45.28 67.12 43 72.48 40.28C77.84 37.48 82.48 34.24 86.4 30.56C90.32 26.8 92.28 23.32 92.28 20.12C92.28 17.48 89.76 15.52 84.72 14.24C79.68 12.96 74.24 12.32 68.4 12.32C62.64 12.32 56.4 13.16 49.68 14.84C42.96 16.44 37.08 18.44 32.04 20.84C27.08 23.24 22.6 25.76 18.6 28.4C14.6 30.96 11.56 33.24 9.48 35.24C7.48 37.16 6.48 38.44 6.48 39.08C6.48 39.64 6.76 39.92 7.32 39.92C7.88 39.92 9.4 39.52 11.88 38.72C19.88 36.08 27.72 32.52 35.4 28.04C35.96 27.72 36.32 27.56 36.48 27.56C36.72 27.56 36.84 27.68 36.84 27.92C36.84 28.08 36.32 28.84 35.28 30.2C34.32 31.48 32.96 33.08 31.2 35C29.44 36.84 27.52 38.64 25.44 40.4C23.36 42.16 21 43.68 18.36 44.96C15.8 46.16 13.28 46.76 10.8 46.76C8.4 46.76 6 45.8 3.6 43.88C1.28 41.88 0.12 39.2 0.12 35.84C0.12 32.4 1.8 28.68 5.16 24.68C8.52 20.68 12.92 16.88 18.36 13.28C23.88 9.68 30.72 6.64 38.88 4.16C47.04 1.68 55 0.439997 62.76 0.439997C70.52 0.439997 77.96 2.36 85.08 6.19999ZM106.095 64.76C106.175 64.44 106.215 64.2 106.215 64.04C106.215 63.88 106.135 63.8 105.975 63.8C105.895 63.8 105.655 64 105.255 64.4C104.935 64.8 104.495 65.36 103.935 66.08C103.375 66.8 102.175 68.16 100.335 70.16C98.575 72.16 96.735 74.04 94.815 75.8C89.615 80.76 84.415 84.56 79.215 87.2C77.935 87.84 76.535 88.16 75.015 88.16C69.175 88.16 66.255 83.76 66.255 74.96C66.255 67.12 69.975 57.68 77.415 46.64C80.935 41.52 85.135 36.52 90.015 31.64C94.975 26.68 100.215 22.28 105.735 18.44C111.255 14.6 117.255 11.52 123.735 9.2C130.215 6.8 136.535 5.6 142.695 5.6C143.735 5.6 145.135 5.96 146.895 6.68C149.855 7.96 151.335 9.32 151.335 10.76C151.335 11.56 150.815 12 149.775 12.08C149.375 12.08 149.175 12.24 149.175 12.56C149.175 12.88 149.735 13.52 150.855 14.48C152.055 15.36 152.655 16.24 152.655 17.12C152.655 17.92 152.375 18.64 151.815 19.28C147.815 23.68 144.615 27.36 142.215 30.32C139.815 33.2 137.975 35.36 136.695 36.8C135.495 38.24 134.095 39.92 132.495 41.84C130.975 43.68 129.255 46.04 127.335 48.92C125.415 51.72 123.655 54.52 122.055 57.32C118.375 64.12 116.535 70.36 116.535 76.04C116.535 81.64 117.055 86.96 118.095 92C119.135 97.12 120.215 100.24 121.335 101.36C121.335 101.6 121.055 101.72 120.495 101.72C116.815 101.72 113.655 100.28 111.015 97.4C106.215 92.04 103.815 85 103.815 76.28C103.815 73.16 104.575 69.32 106.095 64.76ZM121.815 37.76L144.855 14.6C145.415 14.04 145.695 13.64 145.695 13.4C145.695 13.16 145.495 13.04 145.095 13.04C138.935 14 132.415 16.52 125.535 20.6C118.655 24.68 112.415 29.4 106.815 34.76C101.215 40.12 96.055 45.6 91.335 51.2C86.615 56.8 82.935 61.84 80.295 66.32C77.735 70.8 76.455 74 76.455 75.92C76.455 76.24 76.655 76.4 77.055 76.4C77.535 76.4 78.415 76.12 79.695 75.56C80.975 74.92 85.375 71.4 92.895 65C100.495 58.52 110.135 49.44 121.815 37.76ZM235.947 5.11999L237.627 5.6C238.187 5.6 238.867 5.2 239.667 4.4C240.467 3.52 241.147 3.08 241.707 3.08C242.347 3.08 243.227 3.44 244.347 4.16C245.467 4.8 246.027 5.4 246.027 5.96C246.027 7.24 243.107 11.44 237.267 18.56C231.427 25.6 225.027 33.16 218.067 41.24C211.107 49.32 204.707 57.48 198.867 65.72C193.027 73.88 190.107 79.56 190.107 82.76C190.107 88.2 190.507 92.36 191.307 95.24L191.667 96.44C191.667 97 190.987 97.28 189.627 97.28C188.267 97.28 187.187 97.16 186.387 96.92C185.667 96.76 184.787 96.36 183.747 95.72C181.827 94.44 180.467 91.04 179.667 85.52C179.667 82.88 179.907 80.44 180.387 78.2C180.867 75.88 181.987 73.12 183.747 69.92C185.587 66.72 187.347 63.84 189.027 61.28C190.787 58.72 193.827 54.84 198.147 49.64C203.827 42.84 210.187 35.52 217.227 27.68C224.267 19.76 228.107 15.44 228.747 14.72C229.467 13.92 229.827 13.44 229.827 13.28C229.827 13.12 227.547 15.08 222.987 19.16C218.507 23.16 210.707 30.36 199.587 40.76C188.547 51.16 181.707 57.92 179.067 61.04C168.587 73.04 162.147 80.84 159.747 84.44C159.347 85.48 158.627 86 157.587 86C156.627 86 155.747 85.32 154.947 83.96C153.587 81.64 152.907 78.72 152.907 75.2C154.507 69.36 157.627 62 162.267 53.12C166.907 44.16 172.067 35.36 177.747 26.72L183.387 19.4C183.947 18.52 184.227 17.96 184.227 17.72L184.107 17.6C184.027 17.6 180.947 20.88 174.867 27.44C168.787 34 165.187 37.92 164.067 39.2L138.387 67.28C128.227 78.4 120.907 85.12 116.427 87.44C108.667 90 103.987 91.44 102.387 91.76C101.507 91.76 101.067 91.6 101.067 91.28C101.067 90.96 101.467 90.44 102.267 89.72C113.947 77.8 121.267 70.4 124.227 67.52C124.867 67.12 130.107 62.12 139.947 52.52C149.787 42.84 160.307 32.84 171.507 22.52C182.787 12.2 190.787 5.76 195.507 3.2C198.627 2.24 200.947 1.75999 202.467 1.75999C204.067 1.75999 204.867 2.2 204.867 3.08C204.867 3.64 204.507 4.28 203.787 5C191.707 22.28 184.627 33.2 182.547 37.76L175.227 51.56C174.987 52.12 174.867 52.52 174.867 52.76C174.867 53.24 174.947 53.4 175.107 53.24C181.427 48.12 189.707 40.92 199.947 31.64C210.267 22.36 218.147 15.64 223.587 11.48C229.027 7.24 233.147 5.11999 235.947 5.11999ZM208.826 21.32C208.826 20.12 209.626 19.08 211.226 18.2L225.266 12.68C225.586 12.52 226.026 12.44 226.586 12.44C227.226 12.44 227.786 12.72 228.266 13.28C228.746 13.84 229.266 14.12 229.826 14.12C230.386 14.12 231.546 13.92 233.306 13.52C235.146 13.04 237.586 12.48 240.626 11.84C243.666 11.12 247.066 10.44 250.826 9.8C259.626 8.28 268.786 7.52 278.306 7.52C289.586 7.52 297.666 8.36 302.546 10.04C304.466 10.76 306.066 11.76 307.346 13.04C308.706 14.24 309.386 15.72 309.386 17.48C309.386 18.52 308.666 19.04 307.226 19.04C287.226 19.6 270.866 20.88 258.146 22.88C256.866 23.04 256.226 23.48 256.226 24.2C256.226 24.44 256.226 24.68 256.226 24.92C256.306 25.08 256.026 25.52 255.386 26.24L241.826 40.76C241.266 41.32 240.986 41.76 240.986 42.08C240.986 42.32 241.066 42.44 241.226 42.44C241.466 42.44 241.986 42.36 242.786 42.2C247.986 41.88 252.786 41.72 257.186 41.72C261.586 41.72 264.106 41.96 264.746 42.44C268.266 45.08 270.306 46.8 270.866 47.6C271.506 48.4 271.826 49.04 271.826 49.52C271.826 50.56 270.946 51.2 269.186 51.44C248.066 53.52 236.666 54.56 234.986 54.56C233.306 54.48 232.226 54.44 231.746 54.44C230.466 54.44 229.026 55.44 227.426 57.44L212.786 76.88C212.386 77.52 212.186 78 212.186 78.32C212.186 78.56 212.346 78.68 212.666 78.68C212.986 78.68 213.466 78.52 214.106 78.2C221.626 77 228.626 76.4 235.106 76.4C241.666 76.4 246.546 76.6 249.746 77C254.146 77 258.866 80.24 263.906 86.72C264.306 87.28 264.506 87.8 264.506 88.28C264.506 88.76 263.906 89 262.706 89C242.786 89 227.626 89.4 217.226 90.2C216.826 90.28 216.306 90.32 215.666 90.32C212.226 90.32 209.866 89.52 208.586 87.92C208.346 87.44 207.946 87.2 207.386 87.2C206.826 87.2 206.346 87.48 205.946 88.04C205.466 88.6 205.106 88.88 204.866 88.88C204.626 88.88 204.146 88.64 203.426 88.16C202.706 87.68 201.986 86.84 201.266 85.64C200.466 84.52 200.066 83.32 200.066 82.04C200.066 80.68 200.346 79.44 200.906 78.32C201.386 77.2 202.066 75.76 202.946 74C203.746 72.24 205.586 69.24 208.466 65C211.426 60.68 214.506 57 217.706 53.96C218.106 53.56 218.306 53.2 218.306 52.88C218.306 52.48 217.866 52.28 216.986 52.28C216.186 52.28 215.346 52 214.466 51.44C213.666 50.8 213.266 49.96 213.266 48.92C213.266 47.8 214.666 46.88 217.466 46.16L223.946 44.48C224.026 44.48 224.066 44.48 224.066 44.48C225.346 44.48 226.626 43.64 227.906 41.96C237.186 32.92 242.866 27.88 244.946 26.84C245.666 26.36 246.026 26 246.026 25.76C246.026 25.44 245.786 25.28 245.306 25.28C244.826 25.28 244.426 25.32 244.106 25.4C236.666 26.6 230.746 27.2 226.346 27.2C221.946 27.2 218.746 27 216.746 26.6C214.746 26.2 213.266 25.72 212.306 25.16C210.226 23.8 209.106 22.72 208.946 21.92L208.826 21.32Z" fill="#151618"/>
</svg>
