<svg width="193" height="64" viewBox="0 0 193 64" fill="none" xmlns="http://www.w3.org/2000/svg">
<path d="M33.88 28.36C33.96 28.12 33.92 28.08 33.76 28.24C33.68 28.32 33.72 28.36 33.88 28.36V28.6C30.52 30.36 27.16 32.08 23.8 33.76C20.44 35.44 16.96 37 13.36 38.44C12.56 39.8 11.76 41.16 10.96 42.52C10.24 43.88 9.56 45.28 8.92 46.72H8.56C8.4 47.68 8.08 48.64 7.6 49.6C7.04 50.48 6.48 51.32 5.92 52.12C5.6 53 5.24 53.8 4.84 54.52C4.44 55.16 4.08 55.88 3.76 56.68C3.36 56.68 3.08 56.72 2.92 56.8C2.76 56.88 2.52 57 2.2 57.16C2.04 56.84 1.96 56.64 1.96 56.56C1.96 56.48 1.84 56.36 1.6 56.2C1.44 56.04 1.44 55.96 1.6 55.96C1.68 55.96 1.76 55.88 1.84 55.72C1.84 55.56 1.84 55.52 1.84 55.6C1.76 55.68 1.64 55.72 1.48 55.72C1.4 55.24 1.4 54.88 1.48 54.64C1.48 54.32 1.56 53.96 1.72 53.56C1.72 53.48 1.6 53.44 1.36 53.44C1.44 53.28 1.52 53.12 1.6 52.96C1.6 52.8 1.64 52.64 1.72 52.48C1.56 52.32 1.44 52.4 1.36 52.72C1.28 53.04 1.12 53.16 0.879999 53.08C0.96 52.92 1.08 52.76 1.24 52.6C1.32 52.36 1.36 52.08 1.36 51.76C1.2 51.68 1.12 51.84 1.12 52.24C0.96 52.08 0.96 51.88 1.12 51.64C1.2 51.32 1.24 51.08 1.24 50.92C1.16 50.76 1.08 50.8 1 51.04C0.919999 51.2 0.879999 51.36 0.879999 51.52C1.04 50.32 1.44 49.16 2.08 48.04C2.08 47.96 1.96 47.92 1.72 47.92C2.04 47.36 2.32 46.8 2.56 46.24C2.8 45.68 3.04 45.08 3.28 44.44C3.04 44.36 2.96 44.44 3.04 44.68C3.12 44.92 3.04 44.96 2.8 44.8C3.04 43.76 3.44 42.92 4 42.28C4.48 41.56 4.8 40.64 4.96 39.52C5.12 39.52 5.24 39.44 5.32 39.28C5.32 39.04 5.44 38.96 5.68 39.04C5.68 38.64 5.76 38.2 5.92 37.72C5.76 37.56 5.68 37.36 5.68 37.12C5.68 36.8 5.52 36.64 5.2 36.64C5.2 36.24 5.28 36.04 5.44 36.04C5.2 35.8 5 35.56 4.84 35.32C4.6 35 4.52 34.6 4.6 34.12C5.08 33.56 5.76 33.2 6.64 33.04C7.52 32.88 8.28 32.56 8.92 32.08C9.88 30 10.92 28.04 12.04 26.2C13.24 24.28 14.36 22.32 15.4 20.32C15.16 19.76 14.84 19.12 14.44 18.4C14.12 17.6 13.88 16.8 13.72 16C13.56 15.2 13.56 14.44 13.72 13.72C13.88 13 14.32 12.4 15.04 11.92C17.36 11.2 19.68 10.44 22 9.64C24.4 8.76 26.88 7.96 29.44 7.24C32 6.52 34.72 5.92 37.6 5.44C40.48 4.96 43.6 4.68 46.96 4.6C49.44 4.6 51.2 5.44 52.24 7.12C53.28 8.72 54.12 10.56 54.76 12.64C53.96 14.64 52.72 16.24 51.04 17.44C49.44 18.64 47.84 19.76 46.24 20.8C46.08 21.04 45.8 21.32 45.4 21.64C45.08 21.88 44.8 21.88 44.56 21.64C44.56 21.8 44.56 21.88 44.56 21.88C44.64 21.88 44.68 21.96 44.68 22.12C43.08 23 41.52 23.96 40 25C38.48 25.96 36.92 26.76 35.32 27.4C35.32 27.64 35.16 27.84 34.84 28C34.52 28.16 34.2 28.28 33.88 28.36ZM26.56 16.6C26.4 17 26.32 17.36 26.32 17.68C26.4 18 26.36 18.4 26.2 18.88C25.72 19.2 25.32 19.6 25 20.08C24.76 20.56 24.32 20.88 23.68 21.04C23.04 22.16 22.36 23.2 21.64 24.16C21 25.04 20.4 26.04 19.84 27.16C24.48 25 28.92 22.68 33.16 20.2C37.48 17.72 41.6 15.04 45.52 12.16H45.28C42.32 12.4 39.16 12.88 35.8 13.6C32.52 14.24 29.44 15.24 26.56 16.6ZM43.6 22.36C43.84 22.36 43.96 22.28 43.96 22.12C43.72 22.12 43.6 22.2 43.6 22.36ZM1.36 50.32C1.44 50.56 1.48 50.56 1.48 50.32C1.48 50.08 1.44 50.08 1.36 50.32ZM86.6228 10.84C86.7828 11.24 86.7028 11.56 86.3828 11.8C86.1428 11.96 86.0628 12.24 86.1428 12.64C86.0628 12.64 86.1428 12.52 86.3828 12.28C86.5428 12.36 86.5428 12.44 86.3828 12.52C86.3028 12.6 86.3028 12.72 86.3828 12.88C86.2228 12.88 86.1428 12.84 86.1428 12.76C86.1428 12.68 86.0628 12.72 85.9028 12.88C85.9028 13.04 85.9828 13.12 86.1428 13.12C86.3028 13.12 86.3428 13.2 86.2628 13.36C85.9428 13.36 85.7428 13.56 85.6628 13.96C85.5828 14.36 85.5828 14.64 85.6628 14.8C85.8228 14.8 85.8628 14.72 85.7828 14.56C85.7028 14.4 85.7428 14.28 85.9028 14.2C86.0628 14.36 86.0628 14.64 85.9028 15.04C85.8228 15.36 85.7028 15.6 85.5428 15.76C85.4628 15.6 85.4628 15.48 85.5428 15.4C85.6228 15.24 85.6628 15.08 85.6628 14.92C85.1828 15.16 85.0228 15.44 85.1828 15.76C85.4228 16.08 85.3428 16.36 84.9428 16.6C84.8628 16.76 84.8628 16.84 84.9428 16.84C85.1028 16.84 85.2228 16.88 85.3028 16.96C85.2228 17.12 85.0228 17.2 84.7028 17.2C84.7828 17.36 84.8228 17.52 84.8228 17.68C84.9028 17.84 85.0228 17.92 85.1828 17.92C85.0228 18.08 84.9428 18.32 84.9428 18.64C84.9428 18.88 84.7828 19 84.4628 19C84.4628 18.84 84.5028 18.72 84.5828 18.64C84.7428 18.56 84.7828 18.4 84.7028 18.16C84.3828 18.4 84.1828 18.8 84.1028 19.36C84.1028 19.92 84.1428 20.4 84.2228 20.8C84.0628 20.88 83.9428 20.96 83.8628 21.04C83.7828 21.12 83.6628 21.12 83.5028 21.04C83.4228 21.6 83.2228 22.32 82.9028 23.2C82.6628 24 82.4228 24.76 82.1828 25.48C82.2628 25.48 82.3828 25.52 82.5428 25.6C82.7828 25.6 83.0228 25.6 83.2628 25.6C83.5828 25.36 83.9828 25.2 84.4628 25.12C84.9428 24.96 85.3028 24.96 85.5428 25.12C85.8628 24.96 86.2228 24.8 86.6228 24.64C87.1028 24.4 87.5028 24.4 87.8228 24.64C88.3828 24.48 89.1428 24.28 90.1028 24.04C91.0628 23.8 91.9428 23.76 92.7428 23.92C92.7428 24 92.7828 24.04 92.8628 24.04C92.7828 24.28 92.9028 24.4 93.2228 24.4C93.5428 24.32 93.6628 24.2 93.5828 24.04C93.5828 24.04 93.3428 24.04 92.8628 24.04C92.8628 23.88 92.8228 23.8 92.7428 23.8C92.7428 23.8 92.7428 23.72 92.7428 23.56C93.1428 23.4 93.3828 23.4 93.4628 23.56C93.6228 23.72 93.9028 23.72 94.3028 23.56C94.3828 23.8 94.3028 23.88 94.0628 23.8C93.9028 23.72 93.8628 23.8 93.9428 24.04C94.1028 24.04 94.4228 24.04 94.9028 24.04C95.3828 23.96 95.7828 23.88 96.1028 23.8C96.1028 23.64 96.0628 23.56 95.9828 23.56C95.9828 23.56 95.9828 23.48 95.9828 23.32C96.2228 23.4 96.3428 23.56 96.3428 23.8C96.4228 24.04 96.3828 24.24 96.2228 24.4C95.7428 24.24 95.1828 24.2 94.5428 24.28C93.9028 24.36 93.3828 24.64 92.9828 25.12C93.1428 25.28 93.2628 25.24 93.3428 25C93.4228 24.76 93.5428 24.68 93.7028 24.76V25.12C93.8628 25.2 93.9028 25.12 93.8228 24.88C93.8228 24.64 93.9428 24.56 94.1828 24.64C94.1828 24.72 94.1428 24.76 94.0628 24.76C94.0628 24.76 94.0628 24.84 94.0628 25C94.7028 25.08 95.3828 25 96.1028 24.76C96.9028 24.44 97.5428 24.44 98.0228 24.76C97.7028 24.92 97.3028 25 96.8228 25C96.4228 24.92 96.0228 25 95.6228 25.24C95.7028 25.4 95.7428 25.44 95.7428 25.36C95.8228 25.2 95.9428 25.16 96.1028 25.24C96.1028 25.56 95.9428 25.88 95.6228 26.2C95.8628 26.36 96.0228 26.4 96.1028 26.32C96.2628 26.24 96.5028 26.16 96.8228 26.08C96.6628 25.92 96.6228 25.8 96.7028 25.72C96.7828 25.64 96.7028 25.6 96.4628 25.6C96.5428 25.36 96.6628 25.32 96.8228 25.48C96.9828 25.64 97.1028 25.56 97.1828 25.24C97.3428 25.64 97.3028 25.96 97.0628 26.2C96.8228 26.44 96.9428 26.68 97.4228 26.92C97.5828 26.92 97.5828 26.84 97.4228 26.68C97.3428 26.52 97.4628 26.48 97.7828 26.56C97.7828 26.72 97.8628 26.8 98.0228 26.8C98.0228 26.64 97.9428 26.56 97.7828 26.56C97.7828 26.48 97.9028 26.44 98.1428 26.44C98.2228 26.28 98.1828 26.2 98.0228 26.2C97.9428 26.12 97.9828 26 98.1428 25.84C98.2228 25.92 98.3428 26.04 98.5028 26.2C98.6628 26.36 98.7428 26.28 98.7428 25.96C98.9028 25.96 98.9828 26.12 98.9828 26.44C99.3828 26.52 99.7028 26.48 99.9428 26.32C100.183 26.16 100.423 26.16 100.663 26.32C100.343 26.56 99.9428 26.68 99.4628 26.68C99.0628 26.68 98.7428 26.84 98.5028 27.16C98.5028 27.08 98.5428 27.04 98.6228 27.04C98.7028 26.96 98.7428 26.88 98.7428 26.8C98.3428 26.88 97.8628 27 97.3028 27.16C96.7428 27.32 96.2628 27.4 95.8628 27.4V27.88C96.5028 27.8 97.0628 27.72 97.5428 27.64C98.1028 27.48 98.6228 27.48 99.1028 27.64C99.3428 27.56 99.5428 27.44 99.7028 27.28C99.9428 27.12 100.183 27.12 100.423 27.28C100.023 27.76 99.3828 27.96 98.5028 27.88C97.7028 27.8 97.1428 28.04 96.8228 28.6C96.4228 28.6 96.0228 28.68 95.6228 28.84C95.2228 29 94.8628 28.92 94.5428 28.6C94.3828 28.68 94.3028 28.8 94.3028 28.96C94.3028 29.04 94.2228 29.12 94.0628 29.2C93.4228 29.2 92.7428 29.32 92.0228 29.56C91.3028 29.72 90.6228 29.88 89.9828 30.04C90.1428 30.36 90.2628 30.44 90.3428 30.28C90.5028 30.04 90.7028 29.96 90.9428 30.04C90.8628 30.36 90.5828 30.48 90.1028 30.4C89.7028 30.32 89.4628 30.44 89.3828 30.76C89.6228 30.92 89.8628 30.92 90.1028 30.76C90.3428 30.6 90.6628 30.56 91.0628 30.64C89.5428 31.28 88.0628 31.6 86.6228 31.6C86.1428 32 85.5428 32.2 84.8228 32.2C84.1828 32.2 83.5828 32.36 83.0228 32.68C82.8628 32.76 82.8228 32.92 82.9028 33.16C83.0628 33.32 82.9428 33.32 82.5428 33.16C82.5428 33.08 82.5828 33.04 82.6628 33.04C82.7428 33.04 82.7828 33 82.7828 32.92C82.7828 32.76 82.7028 32.72 82.5428 32.8C82.4628 32.88 82.3828 32.92 82.3028 32.92C82.3028 33.08 82.3828 33.16 82.5428 33.16V33.52C82.3028 33.52 82.1828 33.48 82.1828 33.4C82.1028 33.4 82.0628 33.52 82.0628 33.76C81.7428 33.76 81.4628 33.76 81.2228 33.76C81.0628 33.68 80.8628 33.68 80.6228 33.76C80.6228 33.68 80.6228 33.64 80.6228 33.64C80.7028 33.64 80.7428 33.56 80.7428 33.4C80.5028 33.4 80.3428 33.48 80.2628 33.64C80.1828 33.72 80.0628 33.76 79.9028 33.76C79.9828 34.16 79.9028 34.56 79.6628 34.96C79.4228 35.28 79.3028 35.68 79.3028 36.16C79.2228 36.16 79.1828 36.16 79.1828 36.16C79.1828 36.08 79.1428 36.04 79.0628 36.04C78.9028 36.12 78.8628 36.28 78.9428 36.52C79.0228 36.76 79.0628 37 79.0628 37.24C78.9828 37.24 78.9028 37.28 78.8228 37.36C78.8228 37.44 78.7428 37.44 78.5828 37.36C78.4228 37.6 78.3828 37.76 78.4628 37.84C78.6228 37.84 78.7028 37.96 78.7028 38.2C78.6228 38.2 78.5828 38.24 78.5828 38.32C78.5828 38.32 78.5028 38.32 78.3428 38.32C78.2628 38.48 78.2628 38.6 78.3428 38.68C78.4228 38.68 78.4628 38.76 78.4628 38.92C78.3828 38.92 78.3028 38.96 78.2228 39.04C78.2228 39.04 78.1828 39.04 78.1028 39.04C77.9428 40.16 77.6228 41.36 77.1428 42.64C76.6628 43.92 76.3428 45.2 76.1828 46.48C76.1028 46.48 76.0228 46.52 75.9428 46.6C75.9428 46.6 75.9028 46.6 75.8228 46.6C75.9028 46.76 75.9428 47.08 75.9428 47.56C75.7828 47.8 75.5428 48 75.2228 48.16C74.9828 48.24 74.9428 48.48 75.1028 48.88C75.0228 48.88 74.9828 48.88 74.9828 48.88C74.9828 48.8 74.9028 48.76 74.7428 48.76C74.9028 48.92 74.8628 49.16 74.6228 49.48C74.3828 49.8 74.3828 50.04 74.6228 50.2C74.2228 50.36 74.0628 50.64 74.1428 51.04C74.2228 51.44 74.0628 51.72 73.6628 51.88C73.5828 51.72 73.5828 51.6 73.6628 51.52C73.8228 51.44 73.8628 51.32 73.7828 51.16C73.6228 51.16 73.5028 51.28 73.4228 51.52C73.3428 51.68 73.2628 51.56 73.1828 51.16C73.0228 51.32 72.9828 51.48 73.0628 51.64C73.2228 51.72 73.2628 51.84 73.1828 52C72.7828 51.84 72.6228 51.88 72.7028 52.12C72.7828 52.36 72.7028 52.52 72.4628 52.6C72.5428 52.76 72.6228 52.8 72.7028 52.72C72.8628 52.56 73.0228 52.52 73.1828 52.6C73.0228 53 72.8228 53.16 72.5828 53.08C72.4228 53 72.2628 53.16 72.1028 53.56C72.4228 53.96 72.4228 54.28 72.1028 54.52C71.7828 54.76 71.5428 55.04 71.3828 55.36C71.3028 55.6 71.3428 55.76 71.5028 55.84C71.7428 55.84 71.8228 55.92 71.7428 56.08C71.4228 56 71.2628 56.12 71.2628 56.44C71.2628 56.68 71.3428 56.84 71.5028 56.92C71.1828 57 71.0228 57.2 71.0228 57.52C71.0228 57.84 70.9028 58.08 70.6628 58.24C70.5828 57.84 70.6228 57.6 70.7828 57.52C70.9428 57.44 70.9428 57.2 70.7828 56.8C70.9428 56.72 70.9828 56.56 70.9028 56.32C70.9028 56.08 70.9828 55.88 71.1428 55.72C70.7428 55.8 70.6228 56.16 70.7828 56.8C70.6228 56.8 70.5428 56.88 70.5428 57.04C70.5428 57.2 70.4628 57.24 70.3028 57.16C70.5428 57.8 70.5028 58.44 70.1828 59.08C69.8628 59.72 69.5828 60.32 69.3428 60.88C69.1828 60.88 69.1428 60.76 69.2228 60.52C69.3028 60.28 69.2628 60.16 69.1028 60.16C69.0228 60.32 68.9428 60.52 68.8628 60.76C68.7828 61 68.8228 61.2 68.9828 61.36C68.9828 61.52 68.9028 61.56 68.7428 61.48C68.5828 61.4 68.5428 61.28 68.6228 61.12C68.3828 61.28 68.2628 61.52 68.2628 61.84C68.0228 61.68 67.9428 61.4 68.0228 61C67.9428 60.84 67.8628 60.88 67.7828 61.12C67.7028 61.28 67.6228 61.4 67.5428 61.48C67.3028 61.32 67.2228 61.2 67.3028 61.12C67.4628 60.96 67.5028 60.72 67.4228 60.4C67.2628 60.64 67.1028 60.76 66.9428 60.76C66.8628 60.68 66.7828 60.76 66.7028 61C66.5428 60.68 66.5028 60.4 66.5828 60.16C66.6628 59.84 66.6628 59.48 66.5828 59.08C67.0628 54.84 67.7028 51 68.5028 47.56C69.3028 44.04 70.2228 40.32 71.2628 36.4C71.0228 36.24 70.7428 36.24 70.4228 36.4C70.1028 36.48 69.8628 36.6 69.7028 36.76H70.4228C70.4228 36.92 70.3028 37 70.0628 37C69.9028 37 69.7828 37.08 69.7028 37.24C69.5428 37.24 69.4228 37.16 69.3428 37C69.3428 36.84 69.2228 36.8 68.9828 36.88C68.8228 36.96 68.7828 37.08 68.8628 37.24C69.0228 37.32 69.0228 37.4 68.8628 37.48C68.4628 37.48 68.1828 37.56 68.0228 37.72C67.8628 37.8 67.7028 37.92 67.5428 38.08C67.2228 38 66.9028 38 66.5828 38.08C66.3428 38.08 66.1828 38.28 66.1028 38.68C65.6228 38.52 65.2228 38.56 64.9028 38.8C64.5828 38.96 64.1828 39.04 63.7028 39.04C63.7028 38.96 63.7028 38.92 63.7028 38.92C63.7828 38.92 63.8228 38.84 63.8228 38.68C63.6628 38.68 63.5428 38.72 63.4628 38.8C63.4628 38.88 63.3828 38.88 63.2228 38.8C63.2228 38.96 63.2628 39.08 63.3428 39.16C63.5028 39.16 63.5028 39.24 63.3428 39.4C63.0228 39.4 62.9028 39.32 62.9828 39.16C63.1428 39 63.0228 38.96 62.6228 39.04C62.6228 39.2 62.6628 39.32 62.7428 39.4C62.9028 39.4 62.9428 39.52 62.8628 39.76C62.2228 39.6 61.6228 39.68 61.0628 40C60.5828 40.32 60.0228 40.52 59.3828 40.6C59.3028 40.76 59.2228 40.84 59.1428 40.84C59.0628 40.84 58.9828 40.92 58.9028 41.08C57.8628 41.08 56.9828 41.28 56.2628 41.68C55.6228 42.08 54.9428 42.2 54.2228 42.04C54.0628 42.04 54.0228 42.08 54.1028 42.16C54.1828 42.16 54.2228 42.24 54.2228 42.4C53.7428 42.4 53.3828 42.52 53.1428 42.76C52.3428 42.76 51.7028 42.92 51.2228 43.24C50.8228 43.48 50.4228 43.84 50.0228 44.32C49.7028 44.72 49.3428 45.12 48.9428 45.52C48.6228 45.92 48.2228 46.24 47.7428 46.48C47.8228 47.12 47.5028 47.52 46.7828 47.68C46.0628 47.28 45.3028 46.96 44.5028 46.72C43.7028 46.4 43.1828 45.8 42.9428 44.92C42.7028 44.92 42.5828 45 42.5828 45.16C42.2628 44.92 42.1028 44.64 42.1028 44.32C42.0228 44 41.7828 43.76 41.3828 43.6C41.6228 43.28 41.7428 42.88 41.7428 42.4C41.7428 41.84 41.9028 41.4 42.2228 41.08C42.2228 40.92 42.1428 40.88 41.9828 40.96C41.8228 41.04 41.7028 41.04 41.6228 40.96C41.5428 40.8 41.5828 40.72 41.7428 40.72C41.8228 40.72 41.8628 40.64 41.8628 40.48C41.7028 40.32 41.5428 40.2 41.3828 40.12C41.2228 40.04 41.0628 39.92 40.9028 39.76C40.9828 39.52 41.1828 39.4 41.5028 39.4C41.5028 39.24 41.3828 39.16 41.1428 39.16C41.3028 38.76 41.5828 38.52 41.9828 38.44C42.3828 38.28 42.7028 38 42.9428 37.6C43.3428 37.76 43.7028 37.72 44.0228 37.48C44.3428 37.24 44.7028 37.12 45.1028 37.12C48.1428 33.12 51.1828 29.16 54.2228 25.24C57.3428 21.32 60.7028 17.6 64.3028 14.08C66.7828 11.6 69.2628 9.16 71.7428 6.76C74.3028 4.28 77.2628 2.24 80.6228 0.64C81.2628 0.559997 81.7428 0.719995 82.0628 1.11999C82.4628 1.51999 82.9428 1.79999 83.5028 1.96C83.9028 2.6 84.3828 3.12 84.9428 3.52C85.5828 3.84 86.0628 4.36 86.3828 5.08C86.8628 5.16 87.1428 5.48 87.2228 6.04C87.3828 6.52 87.2628 6.92 86.8628 7.24C87.0228 7.4 87.1028 7.4 87.1028 7.24C87.1828 7.08 87.3028 7.04 87.4628 7.12C87.3028 7.36 87.2628 7.64 87.3428 7.96C87.4228 8.2 87.5028 8.4 87.5828 8.56C87.5028 8.48 87.3028 8.44 86.9828 8.44C86.8228 8.6 86.8228 8.76 86.9828 8.92C87.1428 9 87.1428 9.12 86.9828 9.28C86.8228 9.36 86.7428 9.32 86.7428 9.16C86.7428 9 86.7828 8.88 86.8628 8.8C86.6228 8.72 86.5028 8.8 86.5028 9.04C86.5028 9.28 86.5028 9.48 86.5028 9.64C86.7428 9.4 86.9028 9.4 86.9828 9.64C87.0628 9.88 87.0228 10.08 86.8628 10.24C86.6228 10.24 86.5428 10.2 86.6228 10.12C86.7028 10.04 86.6628 9.92 86.5028 9.76C86.3428 9.84 86.3028 10.04 86.3828 10.36C86.4628 10.6 86.4628 10.8 86.3828 10.96C86.4628 10.96 86.5028 10.92 86.5028 10.84H86.6228ZM86.5028 5.8H86.7428V5.56H86.5028V5.8ZM86.9828 6.76C86.9028 6.6 86.9028 6.44 86.9828 6.28C87.0628 6.04 86.9828 5.96 86.7428 6.04C86.6628 6.2 86.6228 6.36 86.6228 6.52C86.6228 6.68 86.7428 6.76 86.9828 6.76ZM86.8628 8.32C87.0228 8.48 87.1028 8.44 87.1028 8.2C87.1828 7.88 87.1428 7.72 86.9828 7.72C86.9028 7.8 86.8628 8 86.8628 8.32ZM77.6228 11.08C77.4628 11.08 77.3828 11.12 77.3828 11.2C77.5428 11.2 77.6228 11.16 77.6228 11.08ZM86.3828 11.56C86.4628 11.48 86.5028 11.36 86.5028 11.2C86.5028 11.04 86.4228 11 86.2628 11.08C86.2628 11.4 86.3028 11.56 86.3828 11.56ZM68.9828 29.44C68.9028 29.68 68.9028 29.76 68.9828 29.68C69.1428 29.52 69.1428 29.44 68.9828 29.44C69.6228 29.12 70.3428 28.92 71.1428 28.84C71.9428 28.68 72.7428 28.4 73.5428 28C74.4228 25.2 75.2628 22.52 76.0628 19.96C76.8628 17.4 77.7028 14.6 78.5828 11.56C76.7428 12.92 74.9428 14.52 73.1828 16.36C71.5028 18.12 69.8228 19.84 68.1428 21.52C66.4628 23.28 64.8228 25.08 63.2228 26.92C61.6228 28.76 60.1028 30.68 58.6628 32.68C60.4228 32.12 62.1028 31.56 63.7028 31C65.3828 30.44 67.1428 29.92 68.9828 29.44ZM76.6628 11.8C76.5028 11.8 76.4228 11.84 76.4228 11.92C76.5828 11.92 76.6628 11.88 76.6628 11.8ZM75.1028 13.72C75.3428 13.72 75.4628 13.6 75.4628 13.36C75.3028 13.28 75.2228 13.32 75.2228 13.48C75.2228 13.56 75.1828 13.64 75.1028 13.72ZM85.0628 14.2C85.2228 14.2 85.3428 14.08 85.4228 13.84C85.5828 13.52 85.5428 13.36 85.3028 13.36C85.3028 13.52 85.2228 13.64 85.0628 13.72C84.9828 13.8 84.9828 13.96 85.0628 14.2ZM72.9428 15.76C73.1028 15.84 73.2628 15.68 73.4228 15.28C73.1028 15.28 72.9428 15.44 72.9428 15.76ZM66.7028 16.36C66.7828 16.52 66.8228 16.52 66.8228 16.36C66.9028 16.12 66.8628 16.12 66.7028 16.36ZM71.9828 16.72C72.0628 16.88 72.1028 16.88 72.1028 16.72C72.1828 16.48 72.1428 16.48 71.9828 16.72ZM71.3828 17.2C71.6228 17.2 71.7428 17.12 71.7428 16.96C71.5028 16.96 71.3828 17.04 71.3828 17.2ZM83.9828 17.44H84.2228V17.2H83.9828V17.44ZM70.1828 17.8C70.3428 17.88 70.4628 17.84 70.5428 17.68C70.6228 17.52 70.5828 17.44 70.4228 17.44C70.4228 17.6 70.3828 17.68 70.3028 17.68C70.2228 17.68 70.1828 17.72 70.1828 17.8ZM69.7028 18.28C69.8628 18.52 69.9028 18.56 69.8228 18.4C69.8228 18.16 69.7828 18.12 69.7028 18.28ZM69.5828 19C69.8228 19 69.9428 18.92 69.9428 18.76H69.7028C69.7028 18.84 69.6628 18.88 69.5828 18.88C69.5828 18.88 69.5828 18.92 69.5828 19ZM68.3828 20.08C68.2228 20.24 68.2228 20.24 68.3828 20.08C68.5428 19.92 68.5428 19.92 68.3828 20.08ZM83.0228 20.56C83.1028 20.8 83.1428 20.8 83.1428 20.56C83.1428 20.32 83.1028 20.32 83.0228 20.56ZM67.3028 20.92C67.3028 20.76 67.3828 20.72 67.5428 20.8C67.7828 20.88 67.8228 20.8 67.6628 20.56C67.5028 20.48 67.3428 20.52 67.1828 20.68C67.1028 20.76 67.1428 20.84 67.3028 20.92ZM83.7428 20.68C83.8228 20.92 83.8628 20.92 83.8628 20.68C83.8628 20.44 83.8228 20.44 83.7428 20.68ZM66.8228 21.52C66.9028 21.28 66.9828 21.2 67.0628 21.28C67.2228 21.36 67.3828 21.4 67.5428 21.4C67.5428 21.08 67.3828 21 67.0628 21.16C66.7428 21.24 66.6628 21.36 66.8228 21.52ZM82.7828 21.64C82.8628 21.88 82.9028 21.88 82.9028 21.64C82.9028 21.4 82.8628 21.4 82.7828 21.64ZM82.7828 22.12H83.0228V21.88H82.7828V22.12ZM66.5828 22.24C66.8228 22.24 66.9428 22.16 66.9428 22C66.7028 22 66.5828 22.08 66.5828 22.24ZM80.8628 22.24C80.9428 22.48 80.9828 22.48 80.9828 22.24C80.9828 22 80.9428 22 80.8628 22.24ZM82.4228 22.72C82.4228 22.64 82.4628 22.6 82.5428 22.6C82.7028 22.6 82.7428 22.52 82.6628 22.36C82.5028 22.28 82.3828 22.32 82.3028 22.48C82.2228 22.64 82.2628 22.72 82.4228 22.72ZM65.5028 23.44C65.2628 23.52 65.1028 23.68 65.0228 23.92C65.3428 23.92 65.5028 23.76 65.5028 23.44H65.7428V23.2C65.5828 23.2 65.5028 23.28 65.5028 23.44ZM82.1828 23.32C82.2628 23.56 82.3028 23.56 82.3028 23.32C82.3028 23.08 82.2628 23.08 82.1828 23.32ZM82.4228 23.92H82.6628V23.68H82.4228V23.92ZM60.4628 24.28C60.5428 24.52 60.5828 24.52 60.5828 24.28C60.5828 24.04 60.5428 24.04 60.4628 24.28ZM91.6628 24.52C91.9028 24.6 92.0628 24.56 92.1428 24.4C92.3028 24.24 92.4628 24.24 92.6228 24.4C92.6228 24.16 92.4628 24.08 92.1428 24.16C91.8228 24.24 91.6628 24.36 91.6628 24.52ZM90.3428 24.28C90.1828 24.28 90.1028 24.32 90.1028 24.4C90.2628 24.4 90.3428 24.36 90.3428 24.28ZM90.7028 24.52C90.6228 24.76 90.7428 24.84 91.0628 24.76C91.3828 24.68 91.5428 24.56 91.5428 24.4C91.3828 24.4 91.2228 24.44 91.0628 24.52C90.9828 24.52 90.8628 24.52 90.7028 24.52ZM89.8628 24.76C90.0228 24.76 90.1028 24.8 90.1028 24.88C90.1028 24.88 90.1828 24.88 90.3428 24.88C90.4228 24.72 90.3428 24.64 90.1028 24.64C89.9428 24.56 89.8628 24.6 89.8628 24.76ZM92.9828 24.88C92.9828 24.8 92.9028 24.68 92.7428 24.52C92.5828 24.84 92.6628 24.96 92.9828 24.88ZM86.9828 24.76C86.9028 24.76 86.8628 24.76 86.8628 24.76C86.8628 24.68 86.8228 24.64 86.7428 24.64C86.5828 24.8 86.5428 24.92 86.6228 25C86.7828 25 86.9028 24.92 86.9828 24.76ZM88.6628 25C88.7428 25 88.7828 25.04 88.7828 25.12C88.7828 25.2 88.8228 25.24 88.9028 25.24C89.0628 25.16 89.1828 25.08 89.2628 25C89.4228 24.84 89.5828 24.84 89.7428 25C89.7428 24.6 89.5828 24.52 89.2628 24.76C88.9428 24.92 88.7428 25 88.6628 25ZM91.4228 25.36H92.0228C92.0228 24.96 91.9428 24.76 91.7828 24.76C91.7028 24.76 91.5828 24.96 91.4228 25.36ZM92.3828 24.88C92.4628 25.12 92.5028 25.12 92.5028 24.88C92.5028 24.64 92.4628 24.64 92.3828 24.88ZM63.4628 25.24C63.4628 25.16 63.5028 25.12 63.5828 25.12C63.6628 25.04 63.6228 24.96 63.4628 24.88C63.4628 24.96 63.4228 25.04 63.3428 25.12C63.2628 25.12 63.3028 25.16 63.4628 25.24ZM90.7028 25.6C90.8628 25.44 91.0628 25.44 91.3028 25.6C91.2228 25.44 91.1828 25.32 91.1828 25.24C91.1828 25.16 91.1428 25.08 91.0628 25C91.1428 25.32 91.0628 25.44 90.8228 25.36C90.5828 25.28 90.5428 25.36 90.7028 25.6ZM87.8228 25.36H88.0628V25.12H87.8228V25.36ZM92.5028 25.36H92.7428V25.12H92.5028V25.36ZM94.0628 25.84C94.7028 25.36 95.2628 25.36 95.7428 25.84C95.5828 25.44 95.4228 25.2 95.2628 25.12C95.1028 25.2 94.8628 25.28 94.5428 25.36C94.2228 25.36 93.9428 25.4 93.7028 25.48C93.4628 25.48 93.3028 25.56 93.2228 25.72C93.1428 25.8 93.1828 25.96 93.3428 26.2L93.7028 25.84C93.7028 26 93.7428 26.08 93.8228 26.08C93.9828 26.08 94.0628 26 94.0628 25.84ZM81.5828 25.36C81.6628 25.52 81.7028 25.52 81.7028 25.36C81.7828 25.12 81.7428 25.12 81.5828 25.36ZM84.2228 25.36C84.3028 25.6 84.3428 25.6 84.3428 25.36C84.3428 25.12 84.3028 25.12 84.2228 25.36ZM89.6228 25.6C89.7828 25.44 89.8628 25.44 89.8628 25.6C89.9428 25.76 90.0628 25.8 90.2228 25.72C90.2228 25.48 90.0628 25.36 89.7428 25.36C89.5028 25.28 89.4628 25.36 89.6228 25.6ZM80.9828 25.48C81.0628 25.72 81.1028 25.72 81.1028 25.48C81.1028 25.24 81.0628 25.24 80.9828 25.48ZM86.6228 25.48C86.7028 25.72 86.7428 25.72 86.7428 25.48C86.7428 25.24 86.7028 25.24 86.6228 25.48ZM88.9028 25.48C88.9028 25.88 89.0628 26.08 89.3828 26.08C89.3028 25.92 89.2628 25.8 89.2628 25.72C89.3428 25.56 89.3028 25.44 89.1428 25.36C89.1428 25.44 89.0628 25.48 88.9028 25.48ZM63.4628 25.6C63.3028 25.76 63.3028 25.76 63.4628 25.6C63.6228 25.44 63.6228 25.44 63.4628 25.6ZM85.7828 25.6C85.8628 25.84 85.9028 25.84 85.9028 25.6C85.9028 25.36 85.8628 25.36 85.7828 25.6ZM86.1428 25.72H86.3828V25.48H86.1428V25.72ZM81.5828 25.84C81.8228 25.84 81.9428 25.76 81.9428 25.6C81.7028 25.6 81.5828 25.68 81.5828 25.84ZM92.6228 26.44C92.5428 26.28 92.5028 26.12 92.5028 25.96C92.5028 25.72 92.3828 25.6 92.1428 25.6C92.3028 25.76 92.3828 25.96 92.3828 26.2C92.3828 26.36 92.4628 26.44 92.6228 26.44ZM85.3028 25.84C85.4628 26.08 85.5028 26.12 85.4228 25.96C85.4228 25.72 85.3828 25.68 85.3028 25.84ZM91.4228 25.84C91.5028 26.08 91.5428 26.08 91.5428 25.84C91.5428 25.6 91.5028 25.6 91.4228 25.84ZM95.5028 26.32C95.3428 26.24 95.2228 26.16 95.1428 26.08C95.1428 25.92 95.0628 25.8 94.9028 25.72C94.9028 25.88 94.9428 26.08 95.0228 26.32C95.1828 26.48 95.3428 26.48 95.5028 26.32ZM88.4228 25.96C88.4228 26.12 88.4628 26.16 88.5428 26.08C88.7028 25.92 88.6628 25.88 88.4228 25.96ZM94.6628 25.96C94.7428 26.2 94.7828 26.2 94.7828 25.96C94.7828 25.72 94.7428 25.72 94.6628 25.96ZM87.9428 26.08C88.0228 26.32 88.0628 26.32 88.0628 26.08C88.0628 25.84 88.0228 25.84 87.9428 26.08ZM90.8228 26.2H91.1828C91.1828 26.04 91.0628 25.96 90.8228 25.96V26.2ZM92.7428 26.08C92.8228 26.32 92.8628 26.32 92.8628 26.08C92.8628 25.84 92.8228 25.84 92.7428 26.08ZM83.7428 26.2C83.8228 26.36 83.8628 26.36 83.8628 26.2C83.9428 25.96 83.9028 25.96 83.7428 26.2ZM91.7828 26.56C92.0228 26.56 92.1428 26.4 92.1428 26.08C91.9828 26 91.9028 26.04 91.9028 26.2C91.9828 26.36 91.9428 26.48 91.7828 26.56ZM93.9428 26.68C94.1028 26.68 94.2628 26.64 94.4228 26.56C94.5828 26.4 94.5828 26.24 94.4228 26.08C94.4228 26.24 94.3028 26.32 94.0628 26.32C93.9028 26.32 93.8628 26.44 93.9428 26.68ZM85.7828 26.56C85.7828 26.48 85.8228 26.44 85.9028 26.44C85.9028 26.28 85.8228 26.2 85.6628 26.2C85.6628 26.44 85.7028 26.56 85.7828 26.56ZM94.7828 26.32C94.8628 26.56 94.9028 26.56 94.9028 26.32C94.9028 26.08 94.8628 26.08 94.7828 26.32ZM83.0228 26.44C83.1028 26.68 83.1428 26.68 83.1428 26.44C83.1428 26.2 83.1028 26.2 83.0228 26.44ZM90.4628 26.44C90.3028 26.6 90.3028 26.6 90.4628 26.44C90.6228 26.28 90.6228 26.28 90.4628 26.44ZM62.0228 26.68H62.2628V26.44H62.0228V26.68ZM62.6228 26.56C62.7828 26.8 62.8228 26.84 62.7428 26.68C62.7428 26.44 62.7028 26.4 62.6228 26.56ZM84.3428 26.56C84.4228 26.8 84.4628 26.8 84.4628 26.56C84.4628 26.32 84.4228 26.32 84.3428 26.56ZM90.8228 26.68H91.1828C91.1828 26.52 91.0628 26.44 90.8228 26.44V26.68ZM91.5428 26.56C91.5428 26.48 91.5028 26.44 91.4228 26.44C91.3428 26.44 91.3028 26.48 91.3028 26.56C91.3828 26.56 91.4228 26.6 91.4228 26.68C91.5028 26.76 91.5428 26.72 91.5428 26.56ZM93.5828 26.56C93.3428 26.56 93.2228 26.64 93.2228 26.8C93.4628 26.8 93.5828 26.72 93.5828 26.56ZM94.6628 26.68C94.7428 26.92 94.7828 26.92 94.7828 26.68C94.7828 26.44 94.7428 26.44 94.6628 26.68ZM95.8628 26.8H96.1028V26.56H95.8628V26.8ZM61.7828 26.8C61.6228 26.96 61.6228 26.96 61.7828 26.8C61.9428 26.64 61.9428 26.64 61.7828 26.8ZM90.3428 26.8C90.3428 26.72 90.2628 26.68 90.1028 26.68C90.0228 26.68 89.9828 26.72 89.9828 26.8C89.9028 26.96 89.9428 27.04 90.1028 27.04C90.3428 27.04 90.4228 26.96 90.3428 26.8ZM89.5028 26.92C89.5828 27.16 89.6228 27.16 89.6228 26.92C89.6228 26.68 89.5828 26.68 89.5028 26.92ZM91.7828 26.92C91.7828 27.08 91.8228 27.16 91.9028 27.16C91.9028 27.08 91.9428 27.04 92.0228 27.04C92.1028 27.04 92.1428 27 92.1428 26.92C91.9028 26.92 91.7828 26.92 91.7828 26.92ZM96.4628 26.92C96.5428 27.16 96.5828 27.16 96.5828 26.92C96.5828 26.68 96.5428 26.68 96.4628 26.92ZM83.9828 27.04C84.0628 27.28 84.1028 27.28 84.1028 27.04C84.1028 26.8 84.0628 26.8 83.9828 27.04ZM95.5028 27.04C95.5828 27.2 95.6228 27.2 95.6228 27.04C95.7028 26.8 95.6628 26.8 95.5028 27.04ZM96.1028 27.04C96.1828 27.28 96.2228 27.28 96.2228 27.04C96.2228 26.8 96.1828 26.8 96.1028 27.04ZM90.7028 27.28H90.9428V27.04H90.7028V27.28ZM94.3028 27.4C94.3028 27.24 94.3828 27.2 94.5428 27.28C94.7828 27.36 94.8228 27.28 94.6628 27.04C94.5028 26.96 94.3428 27 94.1828 27.16C94.1028 27.24 94.1428 27.32 94.3028 27.4ZM83.8628 27.28C83.6228 27.12 83.5028 27.12 83.5028 27.28C83.5828 27.44 83.7028 27.44 83.8628 27.28ZM89.8628 27.4C89.7028 27.56 89.7028 27.56 89.8628 27.4C90.0228 27.24 90.0228 27.24 89.8628 27.4ZM92.5028 27.52C92.4228 27.92 92.4228 27.96 92.5028 27.64C92.5828 27.32 92.5828 27.28 92.5028 27.52ZM94.7828 27.88C94.9428 28.04 95.1028 28.08 95.2628 28C95.5028 27.92 95.6228 27.8 95.6228 27.64C95.4628 27.48 95.2628 27.44 95.0228 27.52C94.8628 27.6 94.7828 27.72 94.7828 27.88ZM87.4628 27.76V28C87.6228 28.16 87.7028 28.16 87.7028 28C87.7828 27.76 87.7428 27.64 87.5828 27.64C87.5828 27.72 87.5428 27.76 87.4628 27.76ZM93.5828 27.88C93.5028 27.96 93.4228 28.04 93.3428 28.12C93.2628 28.12 93.1828 28.16 93.1028 28.24C93.2628 28.4 93.3828 28.44 93.4628 28.36C93.6228 28.28 93.6628 28.12 93.5828 27.88ZM92.6228 28C92.7028 28.24 92.7428 28.24 92.7428 28C92.7428 27.76 92.7028 27.76 92.6228 28ZM85.9028 28.24V28.48H86.1428C86.1428 28.4 86.1828 28.36 86.2628 28.36V28.12H86.0228C86.0228 28.2 85.9828 28.24 85.9028 28.24ZM91.4228 28.48C91.6628 28.56 91.8228 28.56 91.9028 28.48C92.0628 28.32 92.0228 28.2 91.7828 28.12C91.7828 28.28 91.6628 28.36 91.4228 28.36C91.2628 28.28 91.2628 28.32 91.4228 28.48ZM86.3828 28.36C86.4628 28.6 86.5028 28.6 86.5028 28.36C86.5028 28.12 86.4628 28.12 86.3828 28.36ZM89.8628 28.48H90.1028V28.24H89.8628V28.48ZM92.7428 28.36C92.5828 28.52 92.5828 28.52 92.7428 28.36C92.9028 28.2 92.9028 28.2 92.7428 28.36ZM96.2228 28.24H95.7428C95.5828 28.56 95.6228 28.68 95.8628 28.6C96.1028 28.52 96.2228 28.4 96.2228 28.24ZM85.1828 28.48C85.2628 28.72 85.3028 28.72 85.3028 28.48C85.3028 28.24 85.2628 28.24 85.1828 28.48ZM90.3428 28.72C90.7428 28.72 90.9428 28.6 90.9428 28.36C90.6228 28.36 90.4228 28.48 90.3428 28.72ZM83.1428 28.72V28.96H83.3828C83.5428 28.8 83.5028 28.68 83.2628 28.6C83.2628 28.68 83.2228 28.72 83.1428 28.72ZM84.1028 28.84H84.3428V28.6H84.1028V28.84ZM60.5828 29.44L60.2228 28.72C60.2228 28.88 60.2228 29.08 60.2228 29.32C60.2228 29.48 60.3428 29.52 60.5828 29.44ZM87.9428 28.72C87.8628 29.12 87.9028 29.24 88.0628 29.08C88.2228 28.92 88.1828 28.8 87.9428 28.72ZM89.2628 29.2C89.3428 29.12 89.3828 29.04 89.3828 28.96C89.3828 28.8 89.3028 28.72 89.1428 28.72C89.1428 29.04 89.1828 29.2 89.2628 29.2ZM82.6628 28.96C82.7428 29.2 82.7828 29.2 82.7828 28.96C82.7828 28.72 82.7428 28.72 82.6628 28.96ZM84.5828 29.08V29.32H84.8228C84.9828 29.16 84.9428 29.04 84.7028 28.96C84.7028 29.04 84.6628 29.08 84.5828 29.08ZM88.0628 29.56C88.2228 29.48 88.3828 29.44 88.5428 29.44C88.7828 29.36 88.9028 29.2 88.9028 28.96C88.7428 29.04 88.5028 29.12 88.1828 29.2C87.9428 29.28 87.9028 29.4 88.0628 29.56ZM59.8628 29.56C59.9428 29.48 59.9828 29.36 59.9828 29.2C59.9828 29.04 59.9028 29 59.7428 29.08C59.7428 29.4 59.7828 29.56 59.8628 29.56ZM81.2228 29.44C81.3828 29.68 81.4228 29.72 81.3428 29.56C81.3428 29.32 81.3028 29.28 81.2228 29.44ZM87.1028 29.68H87.3428V29.44H87.1028V29.68ZM59.8628 29.8C59.9428 29.8 59.9828 29.84 59.9828 29.92C59.9828 29.92 60.0228 29.92 60.1028 29.92C60.1028 29.84 60.1028 29.8 60.1028 29.8C60.1828 29.8 60.2228 29.76 60.2228 29.68C60.1428 29.68 60.1028 29.68 60.1028 29.68C60.1028 29.6 60.0628 29.56 59.9828 29.56C59.9828 29.64 59.9428 29.68 59.8628 29.68C59.8628 29.68 59.8628 29.72 59.8628 29.8ZM87.5828 30.4C87.5828 30.8 87.6228 30.96 87.7028 30.88C87.8628 30.8 87.9828 30.88 88.0628 31.12C88.2228 30.96 88.4228 30.96 88.6628 31.12C88.9028 31.2 89.1028 31.16 89.2628 31C89.0228 30.6 89.0228 30.44 89.2628 30.52C89.5828 30.52 89.7428 30.36 89.7428 30.04C89.3428 30.04 89.0228 30.12 88.7828 30.28C88.6228 30.36 88.3828 30.4 88.0628 30.4C88.0628 30.08 88.0228 29.92 87.9428 29.92C87.7828 30.08 87.7428 30.24 87.8228 30.4C87.9828 30.56 87.9028 30.56 87.5828 30.4ZM59.1428 30.4C59.3028 30.32 59.4628 30.28 59.6228 30.28C59.7828 30.28 59.9028 30.2 59.9828 30.04C59.4228 30.04 59.1428 30.16 59.1428 30.4ZM87.2228 30.76H87.4628V30.52H87.2228V30.76ZM87.3428 31.12H87.5828V30.88H87.3428V31.12ZM84.8228 31.24C84.9028 31.48 84.9428 31.48 84.9428 31.24C84.9428 31 84.9028 31 84.8228 31.24ZM85.9028 31.72V31.48C85.9028 31.32 85.8628 31.24 85.7828 31.24C85.7828 31.32 85.6628 31.36 85.4228 31.36C85.4228 31.2 85.3428 31.12 85.1828 31.12C85.1828 31.36 85.2628 31.52 85.4228 31.6C85.5828 31.6 85.7428 31.64 85.9028 31.72ZM84.2228 32.2C84.3828 32.36 84.5028 32.28 84.5828 31.96C84.6628 31.56 84.5828 31.4 84.3428 31.48C84.4228 31.64 84.3828 31.76 84.2228 31.84C84.1428 31.92 84.1428 32.04 84.2228 32.2ZM84.9428 31.96C84.9428 31.88 84.9828 31.84 85.0628 31.84C85.1428 31.76 85.1828 31.68 85.1828 31.6C85.0228 31.52 84.9028 31.56 84.8228 31.72C84.7428 31.88 84.7828 31.96 84.9428 31.96ZM81.8228 31.96C81.9028 32.2 81.9428 32.2 81.9428 31.96C81.9428 31.72 81.9028 31.72 81.8228 31.96ZM82.5428 32.56C82.5428 32.48 82.4628 32.36 82.3028 32.2C82.3028 32.44 82.3828 32.56 82.5428 32.56ZM81.5828 32.8C81.8228 33.04 82.0228 32.96 82.1828 32.56C82.1028 32.56 82.0228 32.52 81.9428 32.44C81.9428 32.36 81.9028 32.32 81.8228 32.32C81.8228 32.48 81.7428 32.56 81.5828 32.56C81.5028 32.56 81.5028 32.64 81.5828 32.8ZM58.1828 32.44C58.0228 32.44 57.9428 32.48 57.9428 32.56C58.1028 32.56 58.1828 32.52 58.1828 32.44ZM80.6228 32.8C80.7028 33.04 80.7428 33.04 80.7428 32.8C80.7428 32.56 80.7028 32.56 80.6228 32.8ZM81.1028 33.4C81.5028 33.4 81.7028 33.32 81.7028 33.16C81.6228 33 81.5028 32.96 81.3428 33.04C81.2628 33.12 81.1828 33.24 81.1028 33.4ZM82.0628 33.04C81.9028 33.04 81.8228 33.08 81.8228 33.16C81.9828 33.16 82.0628 33.12 82.0628 33.04ZM68.7428 34C68.7428 33.92 68.7028 33.88 68.6228 33.88C68.5428 33.88 68.5028 33.92 68.5028 34C68.5828 34 68.6228 34.04 68.6228 34.12C68.7028 34.2 68.7428 34.16 68.7428 34ZM64.4228 34.36C64.5028 34.6 64.5428 34.6 64.5428 34.36C64.5428 34.12 64.5028 34.12 64.4228 34.36ZM68.2628 34.84C68.1028 34.84 68.0228 34.88 68.0228 34.96C68.1828 34.96 68.2628 34.92 68.2628 34.84ZM68.2628 37.24C68.6628 37.24 68.8228 37.16 68.7428 37C68.4228 37 68.2628 37.08 68.2628 37.24ZM67.6628 37.48C67.9028 37.48 68.0228 37.4 68.0228 37.24C67.7828 37.24 67.6628 37.32 67.6628 37.48ZM65.0228 37.48C65.1028 37.72 65.1428 37.72 65.1428 37.48C65.1428 37.24 65.1028 37.24 65.0228 37.48ZM67.0628 37.6C67.1428 37.84 67.1828 37.84 67.1828 37.6C67.1828 37.36 67.1428 37.36 67.0628 37.6ZM66.3428 37.84H66.1028C66.0228 37.84 65.9828 37.88 65.9828 37.96C65.8228 38.12 65.8628 38.2 66.1028 38.2C66.4228 38.12 66.5028 38 66.3428 37.84ZM63.8228 38.08C63.9028 38.32 63.9428 38.32 63.9428 38.08C63.9428 37.84 63.9028 37.84 63.8228 38.08ZM65.1428 38.32C65.3028 38.32 65.4628 38.32 65.6228 38.32C65.7828 38.32 65.8228 38.24 65.7428 38.08H65.1428V38.32ZM64.4228 38.44C64.5028 38.68 64.5428 38.68 64.5428 38.44C64.5428 38.2 64.5028 38.2 64.4228 38.44ZM63.9428 38.56C63.8628 38.96 63.8628 39 63.9428 38.68C64.0228 38.36 64.0228 38.32 63.9428 38.56ZM62.2628 39.4C62.2628 39.32 62.3028 39.28 62.3828 39.28C62.4628 39.2 62.4228 39.12 62.2628 39.04C62.2628 39.12 62.2228 39.2 62.1428 39.28C62.0628 39.28 62.1028 39.32 62.2628 39.4ZM60.9428 39.76C61.1028 39.84 61.2228 39.84 61.3028 39.76C61.4628 39.6 61.4628 39.48 61.3028 39.4C61.3028 39.56 61.2228 39.64 61.0628 39.64C60.9828 39.56 60.9428 39.6 60.9428 39.76ZM58.9028 40.36H58.6628C58.5828 40.36 58.5428 40.4 58.5428 40.48C58.4628 40.72 58.5428 40.8 58.7828 40.72C59.0228 40.64 59.0628 40.52 58.9028 40.36ZM58.4228 40.48H58.1828C58.1028 40.48 58.0628 40.52 58.0628 40.6C57.9828 40.84 58.0628 40.92 58.3028 40.84C58.5428 40.76 58.5828 40.64 58.4228 40.48ZM56.6228 41.32C56.8628 41.32 56.9828 41.24 56.9828 41.08C56.7428 41.08 56.6228 41.16 56.6228 41.32ZM76.1828 45.52C76.1828 45.44 76.1428 45.4 76.0628 45.4C75.9828 45.4 75.9428 45.44 75.9428 45.52C76.0228 45.52 76.0628 45.56 76.0628 45.64C76.1428 45.72 76.1828 45.68 76.1828 45.52ZM75.4628 46.72C75.5428 46.88 75.5828 46.88 75.5828 46.72C75.6628 46.48 75.6228 46.48 75.4628 46.72ZM75.3428 47.2C75.4228 47.2 75.4628 47.24 75.4628 47.32C75.5428 47.4 75.6628 47.4 75.8228 47.32C75.9028 47.16 75.8228 47.08 75.5828 47.08C75.4228 47 75.3428 47.04 75.3428 47.2ZM73.4228 49.48C73.4228 49.64 73.4628 49.72 73.5428 49.72C73.5428 49.64 73.5828 49.6 73.6628 49.6C73.6628 49.84 73.7028 49.96 73.7828 49.96C73.7828 49.8 73.8228 49.76 73.9028 49.84C74.0628 49.84 74.1428 49.76 74.1428 49.6C73.9828 49.68 73.8628 49.68 73.7828 49.6C73.7828 49.52 73.7028 49.44 73.5428 49.36C73.5428 49.44 73.5028 49.48 73.4228 49.48ZM71.0228 55.6C71.0228 55.6 71.1028 55.44 71.2628 55.12C71.1028 55.04 70.9828 55.12 70.9028 55.36C70.8228 55.52 70.8628 55.6 71.0228 55.6ZM68.2628 59.8C68.2628 59.48 68.3028 59.16 68.3828 58.84C68.5428 58.44 68.5828 58.16 68.5028 58C68.3428 58.16 68.1828 58.48 68.0228 58.96C67.9428 59.36 68.0228 59.64 68.2628 59.8ZM69.9428 58.6C70.0228 58.84 70.0628 58.84 70.0628 58.6C70.0628 58.36 70.0228 58.36 69.9428 58.6ZM67.6628 60.52C67.8228 60.44 67.9028 60.48 67.9028 60.64C67.9028 60.8 67.9828 60.84 68.1428 60.76C68.0628 60.6 68.0628 60.48 68.1428 60.4C68.2228 60.24 68.1828 60.08 68.0228 59.92C67.9428 60.08 67.8628 60.2 67.7828 60.28C67.7828 60.28 67.7428 60.36 67.6628 60.52ZM86.6228 10.84C86.6228 10.6 86.7028 10.48 86.8628 10.48V10.72C86.7828 10.72 86.7428 10.76 86.7428 10.84H86.6228ZM86.0228 13.6C86.2628 13.76 86.2628 13.84 86.0228 13.84C85.8628 13.84 85.8628 13.76 86.0228 13.6ZM84.3428 19.72C84.4228 19.48 84.4628 19.48 84.4628 19.72C84.4628 19.96 84.4228 19.96 84.3428 19.72ZM83.7428 22C83.9028 22.08 83.9028 22.24 83.7428 22.48C83.6628 22.72 83.5428 22.8 83.3828 22.72C83.4628 22.64 83.5028 22.56 83.5028 22.48C83.5828 22.32 83.6628 22.16 83.7428 22ZM95.8628 23.08C95.7828 23.24 95.5828 23.32 95.2628 23.32C95.2628 23.16 95.4628 23.08 95.8628 23.08ZM94.5428 23.44C94.6228 23.2 94.6628 23.2 94.6628 23.44C94.6628 23.68 94.6228 23.68 94.5428 23.44ZM99.4628 23.32C99.5428 23.48 99.5028 23.56 99.3428 23.56C99.2628 23.56 99.2228 23.6 99.2228 23.68C99.0628 23.68 99.0228 23.6 99.1028 23.44C99.1828 23.28 99.3028 23.24 99.4628 23.32ZM98.6228 23.56C98.3828 23.72 98.0628 23.8 97.6628 23.8C97.3428 23.8 96.9828 23.8 96.5828 23.8C96.7428 23.56 97.0228 23.48 97.4228 23.56C97.9028 23.56 98.3028 23.56 98.6228 23.56ZM94.9028 23.68C94.9828 23.44 95.0228 23.44 95.0228 23.68C95.0228 23.92 94.9828 23.92 94.9028 23.68ZM102.823 23.8H103.063V24.04H102.823V23.8ZM101.863 23.92H102.103C102.103 24.08 101.983 24.16 101.743 24.16C101.743 24.08 101.743 24.04 101.743 24.04C101.823 24.04 101.863 24 101.863 23.92ZM101.023 24.04C101.263 24.04 101.383 24.12 101.383 24.28H101.023V24.04ZM96.8228 24.28C96.9028 24.04 96.9428 24.04 96.9428 24.28C96.9428 24.52 96.9028 24.52 96.8228 24.28ZM100.183 24.16C100.183 24.32 100.063 24.4 99.8228 24.4C99.6628 24.4 99.5028 24.44 99.3428 24.52C99.3428 24.36 99.4228 24.28 99.5828 24.28C99.8228 24.28 100.023 24.24 100.183 24.16ZM100.903 24.16C100.903 24.32 100.783 24.4 100.543 24.4C100.543 24.24 100.663 24.16 100.903 24.16ZM99.1028 24.4C99.0228 24.56 98.9028 24.64 98.7428 24.64C98.6628 24.64 98.5428 24.68 98.3828 24.76C98.3828 25.08 98.4628 25.24 98.6228 25.24C98.5428 25.4 98.4228 25.48 98.2628 25.48C98.1028 25.48 97.9428 25.56 97.7828 25.72C97.6228 25.56 97.5828 25.4 97.6628 25.24C97.8228 25.08 98.0228 25.04 98.2628 25.12C98.1028 24.8 98.1428 24.56 98.3828 24.4C98.6228 24.24 98.8628 24.24 99.1028 24.4ZM99.2228 24.88C99.3828 24.64 99.4228 24.64 99.3428 24.88C99.3428 25.04 99.3028 25.04 99.2228 24.88ZM102.943 25.24C103.023 25 103.063 25 103.063 25.24C103.063 25.48 103.023 25.48 102.943 25.24ZM99.1028 25.24C99.3428 25.24 99.4628 25.32 99.4628 25.48H99.1028V25.24ZM94.0628 25.84C93.9028 25.84 93.8228 25.76 93.8228 25.6C93.9828 25.6 94.0628 25.68 94.0628 25.84ZM96.2228 25.6C96.3828 25.6 96.4228 25.72 96.3428 25.96C96.3428 26.12 96.2628 26.12 96.1028 25.96V25.72C96.1828 25.72 96.2228 25.68 96.2228 25.6ZM102.583 25.96C102.583 26.2 102.423 26.32 102.103 26.32C102.103 25.76 102.263 25.64 102.583 25.96ZM97.9028 25.96C97.9828 26.12 97.9028 26.2 97.6628 26.2C97.5028 26.2 97.4228 26.28 97.4228 26.44C97.2628 26.28 97.2628 26.16 97.4228 26.08C97.5828 26 97.7428 25.96 97.9028 25.96ZM102.943 26.08C102.943 26 103.023 25.96 103.183 25.96C103.183 26.04 103.103 26.08 102.943 26.08ZM101.863 26.44C101.783 26.36 101.623 26.32 101.383 26.32C101.463 26.16 101.543 26.08 101.623 26.08C101.783 26.08 101.863 26.2 101.863 26.44ZM100.903 26.44C101.063 26.2 101.103 26.2 101.023 26.44C101.023 26.6 100.983 26.6 100.903 26.44ZM101.383 27.04C101.543 26.88 101.543 26.88 101.383 27.04C101.223 27.2 101.223 27.2 101.383 27.04ZM101.983 26.92H102.223C102.223 27.08 102.103 27.16 101.863 27.16C101.863 27.08 101.863 27.04 101.863 27.04C101.943 27.04 101.983 27 101.983 26.92ZM98.8628 28.36C98.5428 28.28 98.2628 28.32 98.0228 28.48C97.7828 28.56 97.4628 28.56 97.0628 28.48C97.2228 28.4 97.5428 28.32 98.0228 28.24C98.5028 28.08 98.7828 28.12 98.8628 28.36ZM95.3828 29.32C95.4628 29.08 95.5028 29.08 95.5028 29.32C95.5028 29.56 95.4628 29.56 95.3828 29.32ZM93.7028 29.8C93.5428 29.8 93.4628 29.68 93.4628 29.44C93.6228 29.44 93.7028 29.56 93.7028 29.8ZM96.7028 29.44C96.5428 29.68 96.3028 29.84 95.9828 29.92C95.6628 29.92 95.3428 29.92 95.0228 29.92C95.3428 29.76 95.9028 29.6 96.7028 29.44ZM93.7028 29.8C93.8628 29.96 94.0228 30.04 94.1828 30.04C93.7828 30.2 93.3428 30.32 92.8628 30.4C92.3828 30.48 91.8628 30.56 91.3028 30.64C91.2228 30.48 91.2228 30.4 91.3028 30.4C91.3828 30.32 91.4228 30.2 91.4228 30.04C91.5828 29.96 91.6228 30 91.5428 30.16C91.5428 30.32 91.6228 30.44 91.7828 30.52C91.9428 30.44 92.0228 30.36 92.0228 30.28C92.1028 30.12 92.2228 29.96 92.3828 29.8C92.5428 30.12 92.6628 30.2 92.7428 30.04C92.8228 29.88 92.9428 29.72 93.1028 29.56C93.2628 29.64 93.2628 29.76 93.1028 29.92C93.0228 30 92.9828 30.08 92.9828 30.16C93.3028 30.24 93.5428 30.12 93.7028 29.8ZM88.9028 30.52C88.9028 30.68 88.8228 30.76 88.6628 30.76C88.5828 30.68 88.5428 30.72 88.5428 30.88C88.3828 30.8 88.3428 30.72 88.4228 30.64C88.5828 30.56 88.7428 30.52 88.9028 30.52ZM90.5828 31.24C90.3428 31.48 90.1428 31.52 89.9828 31.36C89.9028 31.2 90.1028 31.16 90.5828 31.24ZM89.1428 31.48C88.9828 31.64 88.8228 31.72 88.6628 31.72C88.6628 31.56 88.8228 31.48 89.1428 31.48ZM87.8228 31.72C87.9828 31.88 87.9428 31.96 87.7028 31.96C87.4628 31.96 87.5028 31.88 87.8228 31.72ZM85.9028 32.2H86.1428C86.1428 32.36 86.0228 32.44 85.7828 32.44C85.7828 32.36 85.7828 32.32 85.7828 32.32C85.8628 32.32 85.9028 32.28 85.9028 32.2ZM71.0228 36.52C71.1028 36.68 70.9428 36.76 70.5428 36.76C70.5428 36.6 70.7028 36.52 71.0228 36.52ZM72.5828 53.44C72.7428 53.44 72.7828 53.6 72.7028 53.92C72.7028 54.16 72.6228 54.2 72.4628 54.04C72.4628 53.72 72.5028 53.52 72.5828 53.44ZM66.9428 61H67.1828V61.24H66.9428V61ZM67.9028 61.96C68.1428 61.96 68.2228 62.12 68.1428 62.44C68.1428 62.76 68.1028 62.96 68.0228 63.04C67.9428 62.88 67.8628 62.72 67.7828 62.56C67.7828 62.4 67.8228 62.2 67.9028 61.96ZM68.5028 61.96H68.7428V62.2H68.5028V61.96ZM122.188 51.76C122.268 51.68 122.308 51.52 122.308 51.28C122.388 51.2 122.428 51.04 122.428 50.8C122.268 50.88 122.228 51.04 122.308 51.28C122.228 51.28 122.188 51.44 122.188 51.76C122.028 51.84 121.908 51.92 121.828 52C121.748 52.08 121.588 52.12 121.348 52.12C121.428 52.28 121.428 52.4 121.348 52.48C121.268 52.56 121.228 52.68 121.228 52.84C121.228 52.84 121.308 52.84 121.468 52.84C121.468 52.92 121.308 53.04 120.988 53.2C121.148 52.56 121.188 52.08 121.108 51.76C121.028 51.36 121.068 50.96 121.228 50.56C121.148 50.4 121.068 50.4 120.988 50.56C120.908 50.64 120.828 50.6 120.748 50.44C120.748 50.04 120.788 49.72 120.868 49.48C120.948 49.24 121.028 48.96 121.108 48.64C120.948 48.64 120.868 48.72 120.868 48.88C120.708 48.72 120.708 48.56 120.868 48.4C121.028 48.24 121.108 48.08 121.108 47.92V48.04C121.108 48.12 121.148 48.16 121.228 48.16C121.388 47.76 121.468 47.36 121.468 46.96C121.548 46.48 121.668 46 121.828 45.52C121.748 45.36 121.668 45.36 121.588 45.52C121.508 45.68 121.388 45.68 121.228 45.52C121.228 45.68 121.268 45.84 121.348 46C121.428 46.16 121.428 46.36 121.348 46.6C121.188 46.6 121.108 46.48 121.108 46.24C120.868 46.4 120.828 46.56 120.988 46.72C121.148 46.8 121.148 47.04 120.988 47.44C120.828 47.44 120.788 47.36 120.868 47.2C120.948 46.96 120.868 46.92 120.628 47.08C120.788 46.2 120.908 45.52 120.988 45.04C121.148 44.56 121.188 44 121.108 43.36C121.268 43.36 121.348 43.32 121.348 43.24C121.348 43.08 121.428 43.08 121.588 43.24C121.508 42.44 121.588 41.8 121.828 41.32C122.148 40.84 122.348 40.28 122.428 39.64C122.188 40.12 121.988 40.52 121.828 40.84C121.668 41.16 121.508 41.64 121.348 42.28C121.188 42.12 121.148 41.96 121.228 41.8C121.308 41.56 121.308 41.36 121.228 41.2C121.868 40.56 122.108 39.68 121.948 38.56C121.868 38.56 121.828 38.76 121.828 39.16C121.668 39 121.548 38.92 121.468 38.92C121.388 38.92 121.268 39 121.108 39.16C120.948 38.68 121.068 38.44 121.468 38.44C121.868 38.44 122.028 38.24 121.948 37.84C122.268 37.92 122.468 37.88 122.548 37.72C122.708 37.48 122.868 37.28 123.028 37.12C123.028 37.44 122.988 37.68 122.908 37.84C123.228 37.6 123.468 37.28 123.628 36.88C123.788 36.48 123.868 36.12 123.868 35.8C124.268 35.96 124.468 35.76 124.468 35.2C124.548 34.56 124.668 34.16 124.828 34C124.908 33.92 124.908 33.88 124.828 33.88C124.828 33.8 124.828 33.84 124.828 34C124.428 34 124.268 34.16 124.348 34.48C124.508 34.8 124.348 35 123.868 35.08C124.028 34.68 124.108 34.36 124.108 34.12C124.188 33.88 124.268 33.52 124.348 33.04C124.108 33.2 123.908 33.6 123.748 34.24C123.428 34.16 123.308 34.08 123.388 34C123.468 33.92 123.428 33.8 123.268 33.64C123.188 33.4 123.228 33.28 123.388 33.28C123.548 33.28 123.628 33.2 123.628 33.04C123.308 32.4 123.348 31.96 123.748 31.72C124.228 31.48 124.428 31.08 124.348 30.52C124.508 30.36 124.588 30.32 124.588 30.4C124.668 30.4 124.788 30.36 124.948 30.28C124.948 30.12 124.828 30.04 124.588 30.04C124.428 30.04 124.388 29.96 124.468 29.8C124.788 29.96 124.948 29.88 124.948 29.56C125.028 29.16 125.188 29.04 125.428 29.2C125.348 28.96 125.308 28.84 125.308 28.84C125.308 28.76 125.348 28.6 125.428 28.36C125.748 28.2 125.828 28.04 125.668 27.88C125.508 27.72 125.508 27.56 125.668 27.4C125.748 27.72 125.868 27.72 126.028 27.4C126.268 27.08 126.228 26.96 125.908 27.04C125.908 26.8 125.988 26.68 126.148 26.68C126.308 26.6 126.468 26.52 126.628 26.44C126.628 26.28 126.548 26.24 126.388 26.32C126.308 26.32 126.268 26.4 126.268 26.56C126.188 26.32 126.228 26.04 126.388 25.72C126.548 25.32 126.788 25.12 127.108 25.12C127.028 24.8 126.988 24.64 126.988 24.64C127.068 24.56 127.108 24.4 127.108 24.16C125.348 26.64 123.508 29.04 121.588 31.36C119.748 33.6 117.788 35.8 115.708 37.96C115.708 37.8 115.668 37.72 115.588 37.72C115.428 37.88 115.468 37.96 115.708 37.96C115.548 38.12 115.428 38.32 115.348 38.56C115.348 38.8 115.268 39.04 115.108 39.28C114.468 39.44 113.788 39.92 113.068 40.72C112.428 41.44 111.708 41.92 110.908 42.16C110.108 43.2 109.028 43.84 107.668 44.08C107.588 44.24 107.468 44.32 107.308 44.32C107.228 44.24 107.108 44.28 106.948 44.44C103.188 43.4 100.428 41.16 98.6678 37.72C98.8278 37.32 98.8278 37.04 98.6678 36.88C98.5078 36.64 98.4678 36.36 98.5478 36.04C98.5478 35.88 98.4278 35.8 98.1878 35.8C98.3478 33.88 98.7078 32.08 99.2678 30.4C99.9078 28.72 100.548 27.08 101.188 25.48C101.268 25.4 101.268 25.36 101.188 25.36C101.188 25.28 101.188 25.32 101.188 25.48C100.308 26.6 99.4678 27.8 98.6678 29.08C97.9478 30.28 97.3478 31.68 96.8678 33.28C96.7878 33.2 96.7478 33.12 96.7478 33.04C95.2278 35.2 93.8278 37.48 92.5478 39.88C91.3478 42.28 90.0678 44.8 88.7078 47.44C88.2278 47.68 87.8678 47.64 87.6278 47.32C87.3078 47 86.9878 46.92 86.6678 47.08C86.3478 46.28 86.0278 45.48 85.7078 44.68C85.3078 43.88 85.3078 43.04 85.7078 42.16C85.6278 42 85.5878 42 85.5878 42.16C85.5078 42.32 85.4278 42.44 85.3478 42.52C85.1878 42.36 85.1878 42.2 85.3478 42.04C85.4278 41.88 85.5478 41.8 85.7078 41.8C85.3078 41.4 85.1478 40.96 85.2278 40.48C85.2278 40 85.3478 39.56 85.5878 39.16C85.6678 39.08 85.7078 39.04 85.7078 39.04H85.8278C85.8278 38.88 85.8278 38.84 85.8278 38.92C85.7478 38.92 85.7078 38.96 85.7078 39.04C85.6278 38.96 85.5878 39 85.5878 39.16H85.3478C85.9878 37.88 86.5478 36.56 87.0278 35.2C87.5078 33.76 88.1878 32.52 89.0678 31.48C89.4678 30.36 89.9878 29.4 90.6278 28.6C91.2678 27.8 91.8278 26.92 92.3078 25.96C93.1878 24.92 93.9878 23.84 94.7078 22.72C95.4278 21.52 96.1478 20.36 96.8678 19.24C97.0278 19.16 97.1078 19.08 97.1078 19C97.1878 18.84 97.3078 18.8 97.4678 18.88C97.7878 18 98.2678 17.32 98.9078 16.84C99.6278 16.36 100.148 15.72 100.468 14.92C100.628 14.84 100.708 14.76 100.708 14.68C100.788 14.6 100.908 14.6 101.068 14.68V14.08C101.708 13.92 102.028 13.6 102.028 13.12C102.188 12.96 102.348 12.92 102.508 13C103.868 11.48 105.228 10 106.588 8.56C107.948 7.12 109.668 6 111.748 5.2C112.068 5.28 112.428 5.36 112.828 5.44C113.228 5.52 113.588 5.56 113.908 5.56C114.148 5.72 114.388 5.96 114.628 6.28C114.948 6.6 115.308 6.72 115.708 6.64C115.948 6.8 116.108 7.04 116.188 7.36C116.348 7.6 116.628 7.8 117.028 7.96C116.948 8.28 116.868 8.52 116.788 8.68C116.708 8.76 116.748 8.96 116.908 9.28C115.788 12.72 114.348 15.96 112.588 19C110.828 22.04 109.308 25.32 108.028 28.84C107.788 28.68 107.588 28.8 107.428 29.2C107.348 29.6 107.228 30 107.068 30.4C106.988 30.4 106.948 30.48 106.948 30.64C106.788 30.64 106.748 30.68 106.828 30.76C106.908 30.76 106.948 30.72 106.948 30.64C107.028 30.64 107.068 30.6 107.068 30.52V30.4C107.308 30.48 107.308 30.68 107.068 31C106.908 31.24 106.828 31.48 106.828 31.72C106.588 31.8 106.428 31.8 106.348 31.72V32.08C106.188 32.08 106.108 32.24 106.108 32.56C105.948 32.64 105.868 32.92 105.868 33.4C105.468 33.8 105.268 34.32 105.268 34.96C105.268 35.52 105.028 36 104.548 36.4C104.548 36.48 104.668 36.52 104.908 36.52C104.748 36.52 104.708 36.64 104.788 36.88C104.868 37.04 104.828 37.16 104.668 37.24C104.588 37.08 104.548 37.04 104.548 37.12C104.548 37.2 104.588 37.24 104.668 37.24C104.828 37.4 104.828 37.52 104.668 37.6C104.508 37.6 104.428 37.68 104.428 37.84C104.748 37.92 104.948 37.88 105.028 37.72C105.108 37.48 105.148 37.24 105.148 37C105.148 36.68 105.148 36.4 105.148 36.16C105.228 35.84 105.388 35.64 105.628 35.56C105.548 35.8 105.468 36.12 105.388 36.52C105.308 36.84 105.348 37.16 105.508 37.48C106.628 36.76 107.628 35.96 108.508 35.08C109.468 34.12 110.348 33.12 111.148 32.08C112.028 31.04 112.908 30.04 113.788 29.08C114.668 28.12 115.588 27.2 116.548 26.32C117.428 24.96 118.388 23.68 119.428 22.48C120.468 21.28 121.508 20.08 122.548 18.88C123.428 17.28 124.468 15.92 125.668 14.8C126.868 13.68 127.908 12.4 128.788 10.96C129.028 10.88 129.188 10.8 129.268 10.72C129.348 10.56 129.468 10.48 129.628 10.48C129.628 10.56 129.588 10.6 129.508 10.6C129.508 10.6 129.508 10.64 129.508 10.72C129.668 10.72 129.748 10.68 129.748 10.6C129.828 10.44 129.948 10.36 130.108 10.36C130.108 10.2 130.028 10.16 129.868 10.24C129.788 10.24 129.788 10.16 129.868 10C130.028 9.84 130.148 9.8 130.228 9.88C130.388 9.88 130.548 9.84 130.708 9.76C130.788 9.44 130.748 9.36 130.588 9.52C130.428 9.68 130.388 9.64 130.468 9.4C130.708 9.16 130.788 9.04 130.708 9.04H130.948C130.868 9.28 130.868 9.36 130.948 9.28C131.108 9.12 131.108 9.04 130.948 9.04C131.108 8.64 131.308 8.44 131.548 8.44V8.68C131.468 8.6 131.428 8.64 131.428 8.8C131.348 8.8 131.308 8.96 131.308 9.28C131.388 9.2 131.428 9.04 131.428 8.8C131.508 8.72 131.548 8.68 131.548 8.68C131.628 8.68 131.668 8.64 131.668 8.56C131.748 8.4 131.708 8.36 131.548 8.44V8.2C131.868 7.96 132.188 7.8 132.508 7.72C132.828 7.56 133.108 7.36 133.348 7.12C133.348 6.96 133.228 6.88 132.988 6.88C133.548 6.24 134.148 5.68 134.788 5.2C135.508 4.72 136.188 4.24 136.828 3.76C136.988 3.68 137.068 3.68 137.068 3.76C137.068 3.83999 137.148 3.87999 137.308 3.87999C137.468 3.56 137.708 3.4 138.028 3.4C138.428 3.32 138.588 3.04 138.508 2.56C138.748 2.64 138.988 2.64 139.228 2.56C139.228 2.72 139.268 2.84 139.348 2.92C139.508 2.84 139.548 2.75999 139.468 2.68C139.468 2.6 139.548 2.6 139.708 2.68C139.788 2.75999 139.868 2.79999 139.948 2.79999C140.108 2.64 140.148 2.52 140.068 2.44C140.068 2.28 140.148 2.16 140.308 2.08C140.628 2.16 140.668 2.28 140.428 2.44C140.268 2.52 140.268 2.64 140.428 2.79999C140.588 2.72 140.668 2.56 140.668 2.32C140.828 2.4 140.948 2.48 141.028 2.56C141.108 2.64 141.308 2.64 141.628 2.56C141.628 2.64 141.588 2.72 141.508 2.79999C141.508 2.79999 141.508 2.84 141.508 2.92C142.228 3.08 142.628 3.36 142.708 3.76C143.028 3.52 143.188 3.56 143.188 3.87999C143.268 4.12 143.508 4.24 143.908 4.24C143.828 4.4 143.908 4.68 144.148 5.08C143.988 5.4 143.908 5.68 143.908 5.92C143.988 6.08 144.028 6.4 144.028 6.88C142.108 10.64 140.148 14.36 138.148 18.04C136.148 21.64 134.188 25.36 132.268 29.2C130.348 32.96 128.548 36.84 126.868 40.84C125.188 44.84 123.748 49.08 122.548 53.56C122.388 53.16 122.388 52.8 122.548 52.48C122.788 52.08 122.908 51.68 122.908 51.28C122.588 51.6 122.388 52.04 122.308 52.6C122.228 53.08 122.108 53.52 121.948 53.92C121.868 53.76 121.868 53.44 121.948 52.96C122.028 52.48 122.108 52.08 122.188 51.76ZM138.268 3.87999C138.428 3.96 138.508 3.88 138.508 3.64C138.508 3.4 138.428 3.36 138.268 3.52V3.87999ZM136.348 4.6C136.188 4.6 136.148 4.64 136.228 4.72C136.308 4.72 136.348 4.68 136.348 4.6C136.428 4.52 136.428 4.48 136.348 4.48C136.348 4.4 136.348 4.44 136.348 4.6ZM136.228 4.96C136.148 4.8 136.108 4.76 136.108 4.84C136.108 4.92 136.148 4.96 136.228 4.96ZM136.228 6.28C136.308 6.52 136.348 6.52 136.348 6.28C136.348 6.04 136.308 6.04 136.228 6.28ZM134.308 7.36C134.308 7.28 134.228 7.24 134.068 7.24C133.988 7.16 133.948 7.2 133.948 7.36C133.868 7.52 133.908 7.6 134.068 7.6C134.308 7.6 134.388 7.52 134.308 7.36ZM134.788 7.6C135.028 7.6 135.148 7.52 135.148 7.36C134.908 7.28 134.788 7.36 134.788 7.6ZM133.708 7.84C133.788 8.08 133.828 8.08 133.828 7.84C133.828 7.6 133.788 7.6 133.708 7.84ZM132.988 8.08C132.828 8.24 132.828 8.24 132.988 8.08C133.148 7.92 133.148 7.92 132.988 8.08ZM134.308 8.2C134.548 8.2 134.668 8.12 134.668 7.96C134.348 7.96 134.228 8.04 134.308 8.2ZM132.868 8.56C132.948 8.8 132.988 8.8 132.988 8.56C132.988 8.32 132.948 8.32 132.868 8.56ZM133.468 8.92C133.308 8.92 133.268 8.96 133.348 9.04C133.428 9.04 133.468 9 133.468 8.92C133.868 8.76 134.068 8.64 134.068 8.56C134.148 8.48 134.148 8.44 134.068 8.44C134.068 8.36 134.068 8.4 134.068 8.56C133.908 8.56 133.828 8.56 133.828 8.56C133.828 8.48 133.788 8.44 133.708 8.44C133.788 8.6 133.748 8.68 133.588 8.68C133.428 8.6 133.388 8.68 133.468 8.92ZM131.908 9.04C131.828 8.88 131.788 8.84 131.788 8.92C131.788 9 131.828 9.04 131.908 9.04ZM132.148 9.64C132.148 9.48 132.188 9.36 132.268 9.28C132.428 9.2 132.428 9.12 132.268 9.04C132.268 9.12 132.188 9.2 132.028 9.28C131.948 9.36 131.988 9.48 132.148 9.64ZM133.228 9.52C133.228 9.36 133.268 9.32 133.348 9.4C133.348 9.16 133.268 9.08 133.108 9.16C133.108 9.32 133.148 9.44 133.228 9.52ZM132.268 10.24C132.428 10.08 132.588 9.92 132.748 9.76C132.988 9.6 132.988 9.48 132.748 9.4C132.508 9.64 132.348 9.92 132.268 10.24ZM131.788 9.76C131.868 10 131.908 10 131.908 9.76C131.908 9.52 131.868 9.52 131.788 9.76ZM131.428 11.08C130.948 11.48 130.548 11.8 130.228 12.04C129.988 12.28 129.708 12.72 129.388 13.36C129.148 13.44 128.988 13.44 128.908 13.36C128.908 13.52 128.828 13.68 128.668 13.84C128.588 14 128.628 14.16 128.788 14.32C128.868 14.08 128.948 13.92 129.028 13.84C129.188 13.68 129.308 13.52 129.388 13.36C129.468 13.36 129.508 13.4 129.508 13.48C129.508 13.48 129.548 13.48 129.628 13.48C129.868 13 130.188 12.6 130.588 12.28C130.988 11.96 131.268 11.56 131.428 11.08C131.588 11 131.748 10.84 131.908 10.6C132.148 10.36 132.188 10.16 132.028 10C131.948 10.24 131.828 10.4 131.668 10.48C131.588 10.56 131.508 10.76 131.428 11.08ZM130.708 10.6C130.708 10.36 130.628 10.24 130.468 10.24C130.468 10.48 130.548 10.6 130.708 10.6ZM130.828 10.72H131.068V10.48H130.828V10.72ZM130.228 10.84C130.148 11.16 130.188 11.24 130.348 11.08C130.508 10.92 130.468 10.84 130.228 10.84ZM129.388 11.8C129.548 11.64 129.708 11.6 129.868 11.68C130.028 11.68 130.148 11.6 130.228 11.44C130.068 11.36 129.988 11.28 129.988 11.2C130.068 11.04 130.028 11 129.868 11.08C129.868 11.24 129.748 11.32 129.508 11.32C129.268 11.24 129.228 11.4 129.388 11.8ZM128.188 12.28C128.108 12.2 128.068 12.24 128.068 12.4C127.908 12.4 127.868 12.44 127.948 12.52C128.028 12.52 128.068 12.48 128.068 12.4C128.148 12.32 128.188 12.28 128.188 12.28C128.428 12.2 128.468 12.12 128.308 12.04C128.228 11.88 128.188 11.96 128.188 12.28ZM129.028 12.64C128.948 12.48 128.948 12.36 129.028 12.28C129.188 12.2 129.188 12.16 129.028 12.16C128.948 12.24 128.908 12.32 128.908 12.4C128.908 12.56 128.948 12.64 129.028 12.64ZM128.428 12.88H128.668V12.64H128.428V12.88ZM127.588 13C127.428 13 127.388 13.04 127.468 13.12C127.548 13.12 127.588 13.08 127.588 13C127.668 12.92 127.668 12.88 127.588 12.88C127.588 12.8 127.588 12.84 127.588 13ZM128.068 13V13.24C128.228 13.32 128.308 13.28 128.308 13.12C128.388 12.88 128.348 12.8 128.188 12.88C128.188 12.96 128.148 13 128.068 13ZM127.588 13.96H127.948C127.948 13.72 127.908 13.6 127.828 13.6C127.828 13.68 127.788 13.72 127.708 13.72C127.628 13.72 127.588 13.8 127.588 13.96ZM127.108 14.44C127.188 14.68 127.228 14.68 127.228 14.44C127.228 14.2 127.188 14.2 127.108 14.44ZM127.948 15.28C127.948 15.12 128.068 14.96 128.308 14.8C128.548 14.64 128.588 14.48 128.428 14.32C128.348 14.48 128.188 14.64 127.948 14.8C127.708 14.88 127.708 15.04 127.948 15.28ZM127.108 16.12C127.028 16.04 126.988 16.08 126.988 16.24H126.868C126.628 16.48 126.468 16.76 126.388 17.08C126.308 17 126.268 17.04 126.268 17.2C126.188 17.12 126.148 17.16 126.148 17.32C125.988 17.48 125.748 17.68 125.428 17.92C125.188 18.16 125.108 18.44 125.188 18.76C125.348 18.44 125.508 18.2 125.668 18.04C125.908 17.88 126.068 17.64 126.148 17.32C126.228 17.24 126.268 17.2 126.268 17.2C126.348 17.12 126.388 17.08 126.388 17.08C126.628 17 126.828 16.72 126.988 16.24C127.068 16.16 127.108 16.12 127.108 16.12C127.268 15.96 127.388 15.84 127.468 15.76C127.628 15.68 127.748 15.56 127.828 15.4C127.428 15.4 127.188 15.64 127.108 16.12ZM124.588 19.24H124.468C124.388 19.24 124.348 19.4 124.348 19.72H124.228C124.068 19.88 123.908 20.08 123.748 20.32C123.588 20.48 123.428 20.72 123.268 21.04C123.028 21.04 122.948 21.12 123.028 21.28C123.188 21.36 123.268 21.28 123.268 21.04C123.588 20.88 123.788 20.68 123.868 20.44C124.028 20.2 124.188 19.96 124.348 19.72H124.468C124.548 19.64 124.588 19.48 124.588 19.24L124.948 18.88C124.708 18.8 124.588 18.92 124.588 19.24ZM129.868 21.64C129.708 21.64 129.628 21.68 129.628 21.76C129.788 21.6 129.868 21.56 129.868 21.64ZM122.308 22.36C122.228 22.28 122.188 22.32 122.188 22.48C121.948 22.48 121.828 22.64 121.828 22.96C122.068 22.96 122.188 22.8 122.188 22.48C122.268 22.4 122.308 22.36 122.308 22.36C122.468 22.2 122.468 22.08 122.308 22C122.228 21.84 122.228 21.96 122.308 22.36ZM127.828 22.84C127.828 22.68 127.868 22.6 127.948 22.6C128.028 22.52 127.988 22.48 127.828 22.48C127.828 22.56 127.788 22.64 127.708 22.72C127.628 22.72 127.668 22.76 127.828 22.84ZM127.468 23.2C127.548 22.96 127.508 22.8 127.348 22.72C127.348 22.96 127.388 23.12 127.468 23.2ZM129.028 23.08C129.108 23.32 129.148 23.32 129.148 23.08C129.148 22.84 129.108 22.84 129.028 23.08ZM121.588 23.2C121.428 23.36 121.428 23.36 121.588 23.2C121.748 23.04 121.748 23.04 121.588 23.2ZM126.988 23.44C126.828 23.6 126.828 23.6 126.988 23.44C127.148 23.28 127.148 23.28 126.988 23.44ZM129.508 23.8C129.348 23.88 129.308 24 129.388 24.16C129.548 24.24 129.588 24.12 129.508 23.8C129.588 23.72 129.588 23.68 129.508 23.68C129.508 23.6 129.508 23.64 129.508 23.8ZM126.508 24.16C126.508 24.56 126.548 24.6 126.628 24.28C126.708 23.96 126.668 23.92 126.508 24.16ZM128.428 24.16C128.268 24.32 128.268 24.32 128.428 24.16C128.588 24 128.588 24 128.428 24.16ZM125.668 24.28C125.748 24.52 125.788 24.52 125.788 24.28C125.788 24.04 125.748 24.04 125.668 24.28ZM101.428 25.24C101.428 25.08 101.468 25 101.548 25C101.628 24.92 101.588 24.88 101.428 24.88C101.428 24.96 101.388 25.04 101.308 25.12C101.228 25.12 101.268 25.16 101.428 25.24ZM126.748 25.72C126.988 25.72 127.108 25.64 127.108 25.48C126.788 25.48 126.668 25.56 126.748 25.72ZM127.348 26.2C127.428 26.36 127.468 26.36 127.468 26.2C127.548 25.96 127.508 25.96 127.348 26.2ZM124.468 26.92C124.388 27.24 124.388 27.28 124.468 27.04C124.548 26.72 124.548 26.68 124.468 26.92ZM117.388 27.64C117.468 27.88 117.508 27.88 117.508 27.64C117.508 27.4 117.468 27.4 117.388 27.64ZM117.868 27.76C118.028 27.92 118.068 27.92 117.988 27.76C117.988 27.52 117.948 27.52 117.868 27.76ZM126.508 28.48C126.508 28.32 126.548 28.2 126.628 28.12C126.788 27.96 126.788 27.84 126.628 27.76C126.628 27.84 126.548 27.96 126.388 28.12C126.308 28.28 126.348 28.4 126.508 28.48ZM117.388 28.12C117.228 28.28 117.228 28.28 117.388 28.12C117.548 27.96 117.548 27.96 117.388 28.12ZM127.348 28.24C127.188 28.24 127.148 28.28 127.228 28.36C127.308 28.36 127.348 28.32 127.348 28.24C127.428 28.16 127.428 28.12 127.348 28.12C127.348 28.04 127.348 28.08 127.348 28.24ZM126.028 28.36C126.108 28.6 126.148 28.6 126.148 28.36C126.148 28.12 126.108 28.12 126.028 28.36ZM127.108 29.2C127.188 29.12 127.228 29 127.228 28.84C127.308 28.68 127.268 28.6 127.108 28.6C127.188 28.68 127.148 28.8 126.988 28.96C126.908 29.04 126.948 29.12 127.108 29.2ZM122.788 28.96C123.028 28.88 123.148 28.8 123.148 28.72H122.908C122.908 28.8 122.868 28.84 122.788 28.84C122.788 28.84 122.788 28.88 122.788 28.96ZM126.028 29.8C125.948 29.64 125.948 29.48 126.028 29.32C126.188 29.16 126.188 29.04 126.028 28.96C126.028 29.12 125.948 29.28 125.788 29.44C125.708 29.6 125.788 29.72 126.028 29.8ZM121.948 29.32C121.788 29.32 121.748 29.36 121.828 29.44C121.908 29.44 121.948 29.4 121.948 29.32C122.028 29.24 122.028 29.2 121.948 29.2C121.948 29.12 121.948 29.16 121.948 29.32ZM122.428 29.68C122.508 29.92 122.548 29.92 122.548 29.68C122.548 29.44 122.508 29.44 122.428 29.68ZM121.948 30.04C122.028 30.2 122.068 30.2 122.068 30.04C122.148 29.8 122.108 29.8 121.948 30.04ZM115.348 30.4C115.428 30.64 115.468 30.64 115.468 30.4C115.468 30.16 115.428 30.16 115.348 30.4ZM124.828 30.76C124.668 30.76 124.588 30.8 124.588 30.88C124.748 30.72 124.828 30.68 124.828 30.76ZM106.708 31.12C106.548 31.12 106.468 31.24 106.468 31.48C106.628 31.48 106.708 31.36 106.708 31.12C106.868 31.04 106.868 30.96 106.708 30.88C106.628 30.72 106.628 30.8 106.708 31.12ZM124.948 31.84C125.028 31.76 125.068 31.64 125.068 31.48C125.148 31.32 125.108 31.24 124.948 31.24C125.028 31.32 124.988 31.44 124.828 31.6C124.748 31.68 124.788 31.76 124.948 31.84ZM124.348 32.8C124.508 32.8 124.548 32.72 124.468 32.56C124.468 32.4 124.548 32.32 124.708 32.32C124.468 32.24 124.348 32.4 124.348 32.8ZM124.948 33.52C125.108 33.52 125.228 33.4 125.308 33.16C125.388 32.92 125.348 32.8 125.188 32.8C125.188 32.96 125.148 33.08 125.068 33.16C124.988 33.24 124.948 33.36 124.948 33.52ZM119.428 33.16H119.668V32.92H119.428V33.16ZM118.948 33.4C119.028 33.64 119.068 33.64 119.068 33.4C119.068 33.16 119.028 33.16 118.948 33.4ZM123.628 33.64C123.468 33.64 123.428 33.68 123.508 33.76C123.588 33.76 123.628 33.72 123.628 33.64C123.708 33.56 123.708 33.52 123.628 33.52C123.628 33.44 123.628 33.48 123.628 33.64ZM127.708 36.16C127.788 36.4 127.828 36.4 127.828 36.16C127.828 35.92 127.788 35.92 127.708 36.16ZM123.988 36.64C124.068 36.8 124.108 36.8 124.108 36.64C124.188 36.4 124.148 36.4 123.988 36.64ZM127.468 36.64C127.548 36.88 127.588 36.88 127.588 36.64C127.588 36.4 127.548 36.4 127.468 36.64ZM115.828 37C115.908 37.24 115.948 37.24 115.948 37C115.948 36.76 115.908 36.76 115.828 37ZM127.228 37.36C126.988 37.36 126.908 37.44 126.988 37.6C127.148 37.68 127.228 37.6 127.228 37.36C127.308 37.28 127.308 37.24 127.228 37.24C127.228 37.16 127.228 37.2 127.228 37.36ZM114.388 38.32C114.228 38.48 114.228 38.48 114.388 38.32C114.548 38.16 114.548 38.16 114.388 38.32ZM126.628 38.32C126.628 38.72 126.668 38.76 126.748 38.44C126.828 38.12 126.788 38.08 126.628 38.32ZM114.868 38.56C114.948 38.8 114.988 38.8 114.988 38.56C114.988 38.32 114.948 38.32 114.868 38.56ZM122.788 38.56C122.868 38.8 122.908 38.8 122.908 38.56C122.908 38.32 122.868 38.32 122.788 38.56ZM122.548 39.16C122.628 39.4 122.668 39.4 122.668 39.16C122.668 38.92 122.628 38.92 122.548 39.16ZM111.388 41.68C111.468 41.84 111.508 41.84 111.508 41.68C111.588 41.44 111.548 41.44 111.388 41.68ZM110.428 42.4C110.508 42.64 110.548 42.64 110.548 42.4C110.548 42.16 110.508 42.16 110.428 42.4ZM110.068 42.76C109.988 42.68 109.948 42.72 109.948 42.88C109.788 42.88 109.668 42.84 109.588 42.76C109.588 42.68 109.508 42.68 109.348 42.76C109.348 42.84 109.308 42.92 109.228 43C109.228 43 109.228 43.08 109.228 43.24C109.548 43.16 109.788 43.04 109.948 42.88C110.028 42.8 110.068 42.76 110.068 42.76C110.148 42.68 110.148 42.64 110.068 42.64C110.068 42.56 110.068 42.6 110.068 42.76ZM107.068 43.72C106.828 43.72 106.708 43.76 106.708 43.84C106.788 43.84 106.908 43.84 107.068 43.84C107.228 43.76 107.348 43.72 107.428 43.72C107.508 43.64 107.428 43.56 107.188 43.48V43.6C107.108 43.68 107.068 43.72 107.068 43.72ZM107.668 43.72C107.908 43.64 108.028 43.56 108.028 43.48H107.788C107.788 43.56 107.748 43.6 107.668 43.6C107.668 43.6 107.668 43.64 107.668 43.72ZM108.388 43.72H108.628V43.48H108.388V43.72ZM122.068 45.28C122.068 45.12 122.108 45.08 122.188 45.16C122.188 44.92 122.108 44.84 121.948 44.92C121.948 45.08 121.988 45.2 122.068 45.28ZM124.348 45.28C124.188 45.28 124.108 45.32 124.108 45.4C124.268 45.24 124.348 45.2 124.348 45.28ZM122.908 49.12C122.988 49.36 123.028 49.36 123.028 49.12C123.028 48.88 122.988 48.88 122.908 49.12ZM120.988 50.32C121.308 50.24 121.388 50.08 121.228 49.84C121.148 49.6 121.268 49.44 121.588 49.36C121.268 49.28 121.068 49.36 120.988 49.6C120.988 49.84 120.988 50.08 120.988 50.32ZM123.388 49.72C123.388 49.56 123.428 49.48 123.508 49.48C123.588 49.4 123.548 49.36 123.388 49.36C123.388 49.44 123.348 49.52 123.268 49.6C123.188 49.6 123.228 49.64 123.388 49.72ZM122.788 51.16C122.948 51 123.068 50.8 123.148 50.56C123.228 50.24 123.228 50.04 123.148 49.96C122.988 50.12 122.908 50.32 122.908 50.56C122.908 50.8 122.868 51 122.788 51.16ZM122.428 50.56C122.588 50.64 122.668 50.56 122.668 50.32C122.748 50.08 122.708 50 122.548 50.08C122.548 50.16 122.508 50.24 122.428 50.32C122.428 50.32 122.428 50.4 122.428 50.56ZM121.948 50.44C122.028 50.68 122.068 50.68 122.068 50.44C122.068 50.2 122.028 50.2 121.948 50.44ZM121.828 51.88C121.828 51.72 121.868 51.64 121.948 51.64C122.028 51.56 121.988 51.52 121.828 51.52C121.828 51.6 121.788 51.68 121.708 51.76C121.628 51.76 121.668 51.8 121.828 51.88ZM139.708 2.68C139.628 2.28 139.628 2.16 139.708 2.32C139.868 2.4 139.868 2.52 139.708 2.68ZM116.908 9.28C117.068 9.2 117.108 9.04 117.028 8.8C116.948 8.56 116.988 8.44 117.148 8.44C117.388 8.52 117.428 8.68 117.268 8.92C117.188 9.16 117.148 9.4 117.148 9.64C116.908 9.4 116.828 9.28 116.908 9.28ZM125.908 27.04C125.908 27.12 125.868 27.16 125.788 27.16C125.708 27.08 125.748 27.04 125.908 27.04ZM133.468 27.16C133.628 27.24 133.628 27.36 133.468 27.52C133.388 27.6 133.348 27.72 133.348 27.88C133.188 27.72 133.188 27.6 133.348 27.52C133.508 27.44 133.548 27.32 133.468 27.16ZM133.108 28C133.268 28 133.268 28.08 133.108 28.24C133.028 28.32 132.988 28.44 132.988 28.6C132.828 28.52 132.788 28.44 132.868 28.36C133.028 28.2 133.108 28.08 133.108 28ZM125.308 28.36C125.308 28.28 125.308 28.24 125.308 28.24C125.388 28.16 125.428 28.2 125.428 28.36H125.308ZM125.308 28.36V28.48C125.228 28.56 125.188 28.6 125.188 28.6C125.188 28.44 125.228 28.36 125.308 28.36ZM125.188 28.6C125.188 28.68 125.148 28.72 125.068 28.72C124.988 28.64 125.028 28.6 125.188 28.6ZM132.628 29.2C132.628 29.04 132.628 29 132.628 29.08C132.708 29.08 132.708 29.12 132.628 29.2ZM132.628 29.2V29.32C132.548 29.4 132.508 29.44 132.508 29.44C132.508 29.28 132.548 29.2 132.628 29.2ZM132.508 29.44C132.508 29.52 132.468 29.56 132.388 29.56C132.308 29.48 132.348 29.44 132.508 29.44ZM107.428 29.8C107.508 29.56 107.548 29.56 107.548 29.8C107.548 30.04 107.508 30.04 107.428 29.8ZM106.348 32.08C106.588 32.48 106.548 33 106.228 33.64C105.908 34.28 105.708 34.88 105.628 35.44C105.388 35.2 105.348 34.88 105.508 34.48C105.748 34.08 105.868 33.72 105.868 33.4C106.028 33.08 106.108 32.8 106.108 32.56C106.268 32.4 106.348 32.24 106.348 32.08ZM122.788 33.76C122.868 33.52 122.908 33.52 122.908 33.76C122.908 34 122.868 34 122.788 33.76ZM123.148 34.12C123.308 34.12 123.348 34.2 123.268 34.36C123.188 34.44 123.148 34.52 123.148 34.6C122.988 34.52 122.948 34.44 123.028 34.36C123.188 34.28 123.228 34.2 123.148 34.12ZM123.028 35.08C123.188 35.08 123.228 35.12 123.148 35.2C123.068 35.2 123.028 35.28 123.028 35.44C122.868 35.36 122.828 35.32 122.908 35.32C122.988 35.24 123.028 35.16 123.028 35.08ZM123.508 35.56C123.588 35.32 123.628 35.32 123.628 35.56C123.708 35.72 123.668 35.72 123.508 35.56ZM123.508 36.28C123.508 36.12 123.508 36.08 123.508 36.16C123.588 36.16 123.588 36.2 123.508 36.28ZM123.388 36.4C123.388 36.24 123.428 36.2 123.508 36.28C123.508 36.36 123.468 36.4 123.388 36.4ZM123.388 36.4C123.388 36.56 123.308 36.6 123.148 36.52C123.068 36.36 123.148 36.32 123.388 36.4ZM122.188 37.12C122.028 37.12 121.948 37.2 121.948 37.36C121.788 37.28 121.748 37.16 121.828 37C121.908 36.84 122.028 36.8 122.188 36.88V37.12ZM122.188 37.12C122.348 36.96 122.428 36.92 122.428 37C122.428 37.08 122.388 37.2 122.308 37.36C122.228 37.28 122.188 37.2 122.188 37.12ZM128.188 38.92C128.108 38.6 128.108 38.52 128.188 38.68C128.348 38.76 128.348 38.84 128.188 38.92ZM128.188 38.92C128.268 39.16 128.228 39.24 128.068 39.16C127.988 39 128.028 38.92 128.188 38.92ZM85.3478 39.16C85.3478 39.24 85.3078 39.28 85.2278 39.28C85.1478 39.2 85.1878 39.16 85.3478 39.16ZM121.468 39.28C121.628 39.28 121.708 39.4 121.708 39.64C121.548 39.64 121.468 39.52 121.468 39.28ZM120.628 43.84C120.708 43.6 120.748 43.6 120.748 43.84C120.748 44.08 120.708 44.08 120.628 43.84ZM120.388 45.16C120.468 44.92 120.508 44.92 120.508 45.16C120.508 45.4 120.468 45.4 120.388 45.16ZM120.628 47.08C120.708 47.32 120.668 47.4 120.508 47.32C120.428 47.16 120.468 47.08 120.628 47.08ZM120.628 47.44C120.788 47.44 120.828 47.52 120.748 47.68C120.748 47.84 120.708 47.96 120.628 48.04C120.468 47.96 120.388 47.8 120.388 47.56C120.548 47.48 120.628 47.44 120.628 47.44ZM121.108 47.92C121.028 47.6 121.028 47.52 121.108 47.68C121.268 47.76 121.268 47.84 121.108 47.92ZM120.268 48.16H120.508V48.4H120.268V48.16ZM120.628 49.12C120.868 49.28 120.868 49.36 120.628 49.36C120.468 49.36 120.468 49.28 120.628 49.12ZM120.268 50.32C120.348 50.24 120.388 50.16 120.388 50.08C120.388 49.92 120.468 49.88 120.628 49.96C120.548 49.96 120.508 50.04 120.508 50.2C120.508 50.28 120.428 50.32 120.268 50.32ZM120.268 50.32C120.268 50.4 120.228 50.44 120.148 50.44C120.068 50.36 120.108 50.32 120.268 50.32ZM120.628 50.68C121.028 50.76 121.068 50.84 120.748 50.92C120.428 51 120.388 50.92 120.628 50.68ZM120.388 51.4C120.468 51.16 120.508 51.16 120.508 51.4C120.508 51.64 120.468 51.64 120.388 51.4ZM121.588 52.72C121.588 52.56 121.588 52.52 121.588 52.6C121.668 52.6 121.668 52.64 121.588 52.72ZM121.468 52.84C121.468 52.68 121.508 52.64 121.588 52.72C121.588 52.8 121.548 52.84 121.468 52.84ZM179.053 19.84C179.373 19.84 179.613 19.72 179.773 19.48C179.693 19.4 179.533 19.4 179.293 19.48C179.133 19.56 179.053 19.68 179.053 19.84H178.693C179.093 19.52 179.453 19.24 179.773 19C180.173 18.68 180.613 18.4 181.093 18.16C181.013 18 181.013 17.88 181.093 17.8C181.173 17.64 181.213 17.44 181.213 17.2C182.333 16.56 183.213 15.84 183.853 15.04C184.573 14.16 185.293 13.16 186.013 12.04C185.693 11.88 185.333 11.8 184.933 11.8C184.613 11.8 184.253 11.8 183.853 11.8C183.693 11.8 183.613 11.72 183.613 11.56C181.773 11.72 179.973 11.92 178.213 12.16C176.453 12.32 174.653 12.6 172.813 13C172.653 13.16 172.413 13.24 172.093 13.24C171.773 13.24 171.533 13.32 171.373 13.48C167.853 14.2 164.653 15.16 161.773 16.36C161.053 16.52 160.213 16.8 159.253 17.2C158.373 17.52 157.653 17.88 157.093 18.28C157.253 18.68 157.453 19.08 157.693 19.48C158.013 19.88 158.133 20.28 158.053 20.68C156.933 21.96 155.773 23.2 154.573 24.4C153.373 25.52 152.213 26.72 151.093 28C151.253 28.16 151.413 28.2 151.573 28.12C151.733 27.96 151.813 27.8 151.813 27.64C154.293 27.16 156.413 26.8 158.173 26.56C159.933 26.32 161.853 26.08 163.933 25.84C165.293 25.68 166.573 25.6 167.773 25.6C169.053 25.6 170.253 25.8 171.373 26.2C171.533 26.28 171.573 26.28 171.493 26.2C171.493 26.04 171.573 25.92 171.733 25.84C171.973 25.84 172.013 25.92 171.853 26.08C171.773 26.16 171.773 26.28 171.853 26.44C172.253 26.44 172.693 26.48 173.173 26.56C173.733 26.56 174.213 26.6 174.613 26.68C174.613 27 174.493 27.08 174.253 26.92C174.653 27.24 175.053 27.44 175.453 27.52C175.933 27.52 176.453 27.64 177.013 27.88C176.933 28.12 177.013 28.36 177.253 28.6C177.573 28.84 177.893 29 178.213 29.08C178.293 29.4 178.333 29.76 178.333 30.16C178.333 30.56 178.533 30.84 178.933 31C178.773 31.32 178.773 31.56 178.933 31.72C179.093 31.88 179.133 32.12 179.053 32.44C178.733 32.28 178.573 32.52 178.573 33.16C173.453 32.44 168.373 32.52 163.333 33.4C158.373 34.2 153.573 35.24 148.933 36.52C148.773 37.24 148.613 37.72 148.453 37.96C148.453 38.12 148.573 38.12 148.813 37.96C149.053 37.8 149.133 37.84 149.053 38.08C148.733 38.16 148.613 38.28 148.693 38.44C148.773 38.6 148.853 38.76 148.933 38.92C147.733 39.8 146.413 40.52 144.973 41.08C143.613 41.64 142.133 42.12 140.533 42.52C140.453 42.68 140.453 42.84 140.533 43C140.533 43.08 140.453 43.16 140.293 43.24C139.893 43.24 139.613 43.32 139.453 43.48C139.213 43.56 138.893 43.56 138.493 43.48C138.333 42.92 138.013 42.56 137.533 42.4C136.973 42.16 136.573 41.72 136.333 41.08C136.413 40.84 136.333 40.48 136.093 40C135.853 39.52 135.813 39.08 135.973 38.68C135.493 38.12 135.373 37.48 135.613 36.76C135.853 36.04 136.053 35.36 136.213 34.72C139.013 30.96 141.933 27.44 144.973 24.16C144.813 24.08 144.653 24 144.493 23.92C144.333 23.76 144.133 23.64 143.893 23.56C143.653 22.84 143.493 22.16 143.413 21.52C143.413 20.88 143.213 20.16 142.813 19.36C142.893 19.12 142.933 18.88 142.933 18.64C142.933 18.32 142.773 18.08 142.453 17.92C142.613 17.52 142.813 17.2 143.053 16.96C143.373 16.64 143.613 16.2 143.773 15.64C149.613 12.52 155.573 9.88 161.653 7.72C167.733 5.56 174.133 4.2 180.853 3.64C181.013 3.72 181.093 3.8 181.093 3.87999C181.173 3.96 181.293 4 181.453 4C181.693 3.76 182.053 3.68 182.533 3.76C183.093 3.76 183.493 3.84 183.733 4C183.893 3.92 183.973 3.87999 183.973 3.87999C183.973 3.8 184.053 3.72 184.213 3.64C184.373 3.64 184.453 3.72 184.453 3.87999C184.453 4.04 184.533 4.08 184.693 4C185.573 3.92 186.293 4.04 186.853 4.36C187.493 4.6 188.053 4.72 188.533 4.72C188.693 4.8 188.773 4.96 188.773 5.2C189.653 5.52 190.293 6.04 190.693 6.76C191.173 7.48 191.493 8.28 191.653 9.16C191.893 9.96 192.013 10.84 192.013 11.8C192.093 12.68 192.173 13.48 192.253 14.2C192.253 14.68 192.053 15.04 191.653 15.28C191.333 15.52 191.173 15.84 191.173 16.24C190.933 16.24 190.813 16.24 190.813 16.24C190.413 16.8 189.893 17.24 189.253 17.56C188.693 17.8 188.213 18.16 187.813 18.64C187.093 18.8 186.293 19.04 185.413 19.36C184.613 19.68 183.893 20 183.253 20.32C182.693 20.16 182.093 20.32 181.453 20.8C180.893 21.2 180.293 21.44 179.653 21.52C179.733 21.36 179.893 21.28 180.133 21.28C180.453 21.2 180.573 20.96 180.493 20.56C180.333 20.4 180.173 20.44 180.013 20.68C179.933 20.92 179.693 20.96 179.293 20.8C179.453 20.64 179.573 20.56 179.653 20.56C179.813 20.48 179.973 20.36 180.133 20.2C179.493 20.36 178.933 20.64 178.453 21.04C177.973 21.44 177.413 21.72 176.773 21.88C176.933 21.32 177.253 20.96 177.733 20.8C178.293 20.56 178.733 20.24 179.053 19.84ZM180.973 3.87999C180.813 4.04 180.733 4.08 180.733 4C180.893 4 180.973 3.96 180.973 3.87999ZM180.373 19C180.133 18.92 180.053 18.96 180.133 19.12C180.293 19.2 180.373 19.16 180.373 19C180.533 19 180.573 19 180.493 19C180.413 18.92 180.373 18.92 180.373 19ZM180.613 20.68C181.013 20.68 181.213 20.52 181.213 20.2H180.853C180.853 20.36 180.773 20.52 180.613 20.68ZM180.853 17.8C180.933 18.04 180.893 18.16 180.733 18.16C180.653 18.08 180.573 18.12 180.493 18.28C180.333 18.2 180.293 18.12 180.373 18.04C180.533 17.88 180.693 17.8 180.853 17.8ZM180.253 18.28C180.253 18.6 180.093 18.68 179.773 18.52C179.773 18.52 179.933 18.44 180.253 18.28ZM178.693 19.84C177.973 20.4 177.213 20.92 176.413 21.4C175.693 21.8 174.893 22.16 174.013 22.48C174.733 22 175.453 21.56 176.173 21.16C176.973 20.68 177.813 20.24 178.693 19.84ZM180.133 20.8C180.213 20.56 180.253 20.56 180.253 20.8C180.253 21.04 180.213 21.04 180.133 20.8ZM178.213 21.76C178.053 21.92 177.933 22.08 177.853 22.24C177.773 22.32 177.573 22.32 177.253 22.24C177.493 21.92 177.773 21.68 178.093 21.52C178.413 21.28 178.773 21.08 179.173 20.92C179.173 21.24 179.053 21.44 178.813 21.52C178.573 21.52 178.373 21.6 178.213 21.76ZM173.173 23.8C173.573 23.32 174.053 22.96 174.613 22.72C175.253 22.4 175.893 22.08 176.533 21.76C176.213 22.32 175.733 22.72 175.093 22.96C174.453 23.2 173.813 23.48 173.173 23.8ZM178.213 21.76C178.373 21.92 178.453 22 178.453 22H178.213V21.76ZM179.413 21.88C178.773 22.36 177.973 22.88 177.013 23.44C176.053 24 175.133 24.36 174.253 24.52C174.413 24.28 174.613 24.12 174.853 24.04C175.173 23.96 175.413 23.76 175.573 23.44C175.813 23.52 176.093 23.48 176.413 23.32C176.733 23.16 177.053 22.96 177.373 22.72C177.693 22.48 178.013 22.28 178.333 22.12C178.733 21.96 179.093 21.88 179.413 21.88ZM176.773 22.24C177.013 22.24 177.133 22.32 177.133 22.48H176.773V22.24ZM174.013 22.48C173.773 22.8 173.453 23.04 173.053 23.2C172.733 23.36 172.373 23.52 171.973 23.68C172.213 23.36 172.493 23.12 172.813 22.96C173.213 22.8 173.613 22.64 174.013 22.48ZM174.973 23.44C175.133 23.2 175.373 23.04 175.693 22.96C176.013 22.8 176.293 22.64 176.533 22.48C176.373 22.8 176.133 23 175.813 23.08C175.573 23.16 175.293 23.28 174.973 23.44ZM174.973 23.44C174.973 23.68 174.893 23.76 174.733 23.68C174.653 23.52 174.733 23.44 174.973 23.44ZM172.693 23.92C172.533 23.92 172.493 23.88 172.573 23.8C172.733 23.64 172.773 23.68 172.693 23.92ZM173.173 23.8C173.173 23.88 173.053 23.92 172.813 23.92C172.813 23.84 172.813 23.8 172.813 23.8C172.893 23.8 172.933 23.76 172.933 23.68C173.013 23.68 173.053 23.72 173.053 23.8C173.053 23.8 173.093 23.8 173.173 23.8ZM172.693 23.92H172.813C172.813 24 172.773 24.08 172.693 24.16C172.693 24.16 172.693 24.08 172.693 23.92ZM172.573 24.04C172.573 24.2 172.493 24.32 172.333 24.4C172.253 24.4 172.173 24.44 172.093 24.52C171.933 24.44 171.933 24.36 172.093 24.28C172.253 24.2 172.413 24.12 172.573 24.04ZM174.133 24.64C174.053 24.88 173.893 25.04 173.653 25.12C173.413 25.12 173.213 25.2 173.053 25.36C172.893 25.2 172.973 25.08 173.293 25C173.693 24.84 173.973 24.72 174.133 24.64ZM192.013 39.16C191.853 39.56 191.693 39.84 191.533 40C191.453 40.16 191.333 40.4 191.173 40.72C190.853 40.72 190.533 40.76 190.213 40.84C189.893 40.84 189.653 41 189.493 41.32V40.72C189.253 40.88 189.133 41.08 189.133 41.32C189.213 41.48 189.133 41.64 188.893 41.8C188.013 42.04 187.253 42.08 186.613 41.92C185.973 41.76 185.373 41.88 184.813 42.28C184.653 42.36 184.573 42.36 184.573 42.28C184.573 42.12 184.533 42 184.453 41.92C184.293 42.08 184.213 42.24 184.213 42.4C184.293 42.48 184.253 42.6 184.093 42.76C183.773 42.92 183.573 42.92 183.493 42.76C183.493 42.52 183.413 42.32 183.253 42.16C183.093 42.08 183.013 42.16 183.013 42.4C183.093 42.56 183.093 42.68 183.013 42.76C182.853 42.92 182.693 42.92 182.533 42.76C182.373 42.6 182.293 42.64 182.293 42.88C182.133 42.96 182.013 42.92 181.933 42.76C181.853 42.6 181.733 42.48 181.573 42.4C181.333 42.32 181.213 42.4 181.213 42.64C181.293 42.88 181.213 42.96 180.973 42.88C181.133 42.64 181.093 42.48 180.853 42.4C180.693 42.32 180.533 42.32 180.373 42.4C180.293 42.64 180.333 42.76 180.493 42.76C180.653 42.68 180.693 42.72 180.613 42.88C180.453 42.72 180.173 42.76 179.773 43C179.453 43.24 179.293 43.08 179.293 42.52C179.133 42.6 179.053 42.8 179.053 43.12C178.653 42.96 178.493 43 178.573 43.24C178.653 43.4 178.573 43.48 178.333 43.48C178.333 43.24 178.213 42.92 177.973 42.52C177.813 42.6 177.773 42.72 177.853 42.88C178.013 43.04 178.013 43.16 177.853 43.24C177.693 43.08 177.533 43.08 177.373 43.24C177.213 43.32 176.973 43.32 176.653 43.24C176.813 43.4 176.893 43.48 176.893 43.48C176.733 43.72 176.613 43.72 176.533 43.48C176.453 43.24 176.333 43.16 176.173 43.24C176.013 43.32 175.973 43.44 176.053 43.6C176.213 43.68 176.213 43.76 176.053 43.84C175.893 43.84 175.813 43.8 175.813 43.72C175.813 43.56 175.733 43.44 175.573 43.36C175.493 43.44 175.413 43.48 175.333 43.48C175.173 43.64 175.093 43.8 175.093 43.96C175.173 44.12 175.133 44.28 174.973 44.44C174.093 44.6 173.253 44.72 172.453 44.8C171.733 44.88 170.973 45.04 170.173 45.28C170.013 45.28 169.973 45.36 170.053 45.52C170.133 45.68 170.133 45.8 170.053 45.88C169.653 45.64 169.133 45.72 168.493 46.12C167.853 46.52 167.373 46.48 167.053 46C166.973 46.08 166.933 46.2 166.933 46.36C166.533 46.28 166.093 46.36 165.613 46.6C165.213 46.84 164.853 47.04 164.533 47.2C162.773 47.44 161.173 47.84 159.733 48.4C158.293 48.96 156.693 49.36 154.933 49.6C154.773 49.68 154.613 49.76 154.453 49.84C154.373 49.92 154.253 50 154.093 50.08C151.533 50.56 149.373 51.2 147.613 52C146.573 52.32 145.453 52.64 144.253 52.96C143.133 53.2 142.133 53.64 141.253 54.28C141.013 54.2 140.813 54.2 140.653 54.28C140.493 54.28 140.293 54.32 140.053 54.4C140.053 54.32 140.013 54.24 139.933 54.16C139.773 54.24 139.653 54.32 139.573 54.4C139.493 54.48 139.293 54.48 138.973 54.4C138.653 53.68 138.373 52.92 138.133 52.12C137.893 51.24 137.853 50.24 138.013 49.12C138.173 49.12 138.253 49.16 138.253 49.24C138.253 49.24 138.293 49.24 138.373 49.24C138.133 48.68 138.333 48.36 138.973 48.28C139.533 48.12 139.973 47.8 140.293 47.32C140.293 47.16 140.253 47.16 140.173 47.32C140.013 47.48 139.973 47.4 140.053 47.08C143.893 45.72 147.893 44.4 152.053 43.12C156.293 41.76 160.733 40.76 165.373 40.12C165.533 39.96 165.733 39.92 165.973 40C166.213 40 166.413 39.88 166.573 39.64C166.733 39.64 166.813 39.68 166.813 39.76C166.813 39.84 166.893 39.88 167.053 39.88C168.813 39.64 170.773 39.4 172.933 39.16C175.093 38.92 177.293 38.76 179.533 38.68C181.773 38.52 183.973 38.48 186.133 38.56C188.293 38.64 190.253 38.84 192.013 39.16ZM190.813 39.76H191.053V39.52H190.813V39.76ZM174.613 44.2C174.613 44.12 174.653 44.08 174.733 44.08C174.733 43.92 174.653 43.84 174.493 43.84C174.493 44.08 174.533 44.2 174.613 44.2ZM175.453 43.84C175.453 43.76 175.493 43.72 175.573 43.72C175.653 43.72 175.693 43.76 175.693 43.84C175.693 44 175.653 44.04 175.573 43.96C175.573 43.88 175.533 43.84 175.453 43.84Z" fill="#151618"/>
</svg>
