<svg width="55" height="54" viewBox="0 0 55 54" fill="none" xmlns="http://www.w3.org/2000/svg">
<path d="M33.88 24.36C33.96 24.12 33.92 24.08 33.76 24.24C33.68 24.32 33.72 24.36 33.88 24.36V24.6C30.52 26.36 27.16 28.08 23.8 29.76C20.44 31.44 16.96 33 13.36 34.44C12.56 35.8 11.76 37.16 10.96 38.52C10.24 39.88 9.56 41.28 8.92 42.72H8.56C8.4 43.68 8.08 44.64 7.6 45.6C7.04 46.48 6.48 47.32 5.92 48.12C5.6 49 5.24 49.8 4.84 50.52C4.44 51.16 4.08 51.88 3.76 52.68C3.36 52.68 3.08 52.72 2.92 52.8C2.76 52.88 2.52 53 2.2 53.16C2.04 52.84 1.96 52.64 1.96 52.56C1.96 52.48 1.84 52.36 1.6 52.2C1.44 52.04 1.44 51.96 1.6 51.96C1.68 51.96 1.76 51.88 1.84 51.72C1.84 51.56 1.84 51.52 1.84 51.6C1.76 51.68 1.64 51.72 1.48 51.72C1.4 51.24 1.4 50.88 1.48 50.64C1.48 50.32 1.56 49.96 1.72 49.56C1.72 49.48 1.6 49.44 1.36 49.44C1.44 49.28 1.52 49.12 1.6 48.96C1.6 48.8 1.64 48.64 1.72 48.48C1.56 48.32 1.44 48.4 1.36 48.72C1.28 49.04 1.12 49.16 0.879999 49.08C0.96 48.92 1.08 48.76 1.24 48.6C1.32 48.36 1.36 48.08 1.36 47.76C1.2 47.68 1.12 47.84 1.12 48.24C0.96 48.08 0.96 47.88 1.12 47.64C1.2 47.32 1.24 47.08 1.24 46.92C1.16 46.76 1.08 46.8 1 47.04C0.919999 47.2 0.879999 47.36 0.879999 47.52C1.04 46.32 1.44 45.16 2.08 44.04C2.08 43.96 1.96 43.92 1.72 43.92C2.04 43.36 2.32 42.8 2.56 42.24C2.8 41.68 3.04 41.08 3.28 40.44C3.04 40.36 2.96 40.44 3.04 40.68C3.12 40.92 3.04 40.96 2.8 40.8C3.04 39.76 3.44 38.92 4 38.28C4.48 37.56 4.8 36.64 4.96 35.52C5.12 35.52 5.24 35.44 5.32 35.28C5.32 35.04 5.44 34.96 5.68 35.04C5.68 34.64 5.76 34.2 5.92 33.72C5.76 33.56 5.68 33.36 5.68 33.12C5.68 32.8 5.52 32.64 5.2 32.64C5.2 32.24 5.28 32.04 5.44 32.04C5.2 31.8 5 31.56 4.84 31.32C4.6 31 4.52 30.6 4.6 30.12C5.08 29.56 5.76 29.2 6.64 29.04C7.52 28.88 8.28 28.56 8.92 28.08C9.88 26 10.92 24.04 12.04 22.2C13.24 20.28 14.36 18.32 15.4 16.32C15.16 15.76 14.84 15.12 14.44 14.4C14.12 13.6 13.88 12.8 13.72 12C13.56 11.2 13.56 10.44 13.72 9.72C13.88 9 14.32 8.4 15.04 7.92C17.36 7.2 19.68 6.44 22 5.64C24.4 4.76 26.88 3.96 29.44 3.24C32 2.52 34.72 1.92 37.6 1.44C40.48 0.959997 43.6 0.679997 46.96 0.599996C49.44 0.599996 51.2 1.44 52.24 3.12C53.28 4.72 54.12 6.56 54.76 8.64C53.96 10.64 52.72 12.24 51.04 13.44C49.44 14.64 47.84 15.76 46.24 16.8C46.08 17.04 45.8 17.32 45.4 17.64C45.08 17.88 44.8 17.88 44.56 17.64C44.56 17.8 44.56 17.88 44.56 17.88C44.64 17.88 44.68 17.96 44.68 18.12C43.08 19 41.52 19.96 40 21C38.48 21.96 36.92 22.76 35.32 23.4C35.32 23.64 35.16 23.84 34.84 24C34.52 24.16 34.2 24.28 33.88 24.36ZM26.56 12.6C26.4 13 26.32 13.36 26.32 13.68C26.4 14 26.36 14.4 26.2 14.88C25.72 15.2 25.32 15.6 25 16.08C24.76 16.56 24.32 16.88 23.68 17.04C23.04 18.16 22.36 19.2 21.64 20.16C21 21.04 20.4 22.04 19.84 23.16C24.48 21 28.92 18.68 33.16 16.2C37.48 13.72 41.6 11.04 45.52 8.16H45.28C42.32 8.4 39.16 8.88 35.8 9.6C32.52 10.24 29.44 11.24 26.56 12.6ZM43.6 18.36C43.84 18.36 43.96 18.28 43.96 18.12C43.72 18.12 43.6 18.2 43.6 18.36ZM1.36 46.32C1.44 46.56 1.48 46.56 1.48 46.32C1.48 46.08 1.44 46.08 1.36 46.32Z" fill="#151618"/>
</svg>
