<svg width="97" height="88" viewBox="0 0 97 88" fill="none" xmlns="http://www.w3.org/2000/svg">
<path d="M85.08 6.19999C88.52 8.11999 91.32 10.72 93.48 14C95.72 17.28 96.84 20.96 96.84 25.04C96.84 29.12 94.28 33.8 89.16 39.08C84.04 44.36 77.8 48.88 70.44 52.64C63.16 56.32 56.8 58.16 51.36 58.16C46 58.16 42.12 55.92 39.72 51.44C25.96 69.92 18.2 81.12 16.44 85.04C16.52 85.44 16.56 86 16.56 86.72C16.56 87.52 16.12 87.92 15.24 87.92C14.36 87.92 13.2 87.16 11.76 85.64C10.4 84.2 9.72 82.12 9.72 79.4C9.72 78.6 9.76 77.96 9.84 77.48C10.56 72.2 17.88 61.8 31.8 46.28C45.8 30.76 55.88 21.32 62.04 17.96C63.32 17.32 64.28 17 64.92 17C65.56 17 66.2 17.2 66.84 17.6C67.56 18 67.92 18.48 67.92 19.04C67.92 19.6 67.76 20.04 67.44 20.36C61.44 26.6 57.84 30.4 56.64 31.76L42.36 48.32C42.2 48.56 42.12 48.8 42.12 49.04C42.12 49.6 42.48 49.88 43.2 49.88C46.4 49.88 50.72 48.96 56.16 47.12C61.68 45.28 67.12 43 72.48 40.28C77.84 37.48 82.48 34.24 86.4 30.56C90.32 26.8 92.28 23.32 92.28 20.12C92.28 17.48 89.76 15.52 84.72 14.24C79.68 12.96 74.24 12.32 68.4 12.32C62.64 12.32 56.4 13.16 49.68 14.84C42.96 16.44 37.08 18.44 32.04 20.84C27.08 23.24 22.6 25.76 18.6 28.4C14.6 30.96 11.56 33.24 9.48 35.24C7.48 37.16 6.48 38.44 6.48 39.08C6.48 39.64 6.76 39.92 7.32 39.92C7.88 39.92 9.4 39.52 11.88 38.72C19.88 36.08 27.72 32.52 35.4 28.04C35.96 27.72 36.32 27.56 36.48 27.56C36.72 27.56 36.84 27.68 36.84 27.92C36.84 28.08 36.32 28.84 35.28 30.2C34.32 31.48 32.96 33.08 31.2 35C29.44 36.84 27.52 38.64 25.44 40.4C23.36 42.16 21 43.68 18.36 44.96C15.8 46.16 13.28 46.76 10.8 46.76C8.4 46.76 6 45.8 3.6 43.88C1.28 41.88 0.12 39.2 0.12 35.84C0.12 32.4 1.8 28.68 5.16 24.68C8.52 20.68 12.92 16.88 18.36 13.28C23.88 9.68 30.72 6.64 38.88 4.16C47.04 1.68 55 0.439997 62.76 0.439997C70.52 0.439997 77.96 2.36 85.08 6.19999Z" fill="#151618"/>
</svg>
